<svg width="484" height="360" viewBox="0 0 484px 360" xmlns="http://www.w3.org/2000/svg">
  <title>
    Group 3
  </title>
  <g fill="none" fill-rule="evenodd">
    <path fill="#83EBF1" d="M0 0h484v360H0z"/>
    <path d="M484 180v180H0V180h360z" fill="#424444"/>
    <path d="M125 179.5l-2.5 29.5 20 9 51.5 1 49-1-41.5-52.5-76.5 14z" fill="#474948"/>
    <g transform="translate(124.205 191)">
      <ellipse fill="#322F2F" cx="6.826" cy="19.958" rx="6.826" ry="19.958"/>
      <path d="M7.28 39.916h11.832c3.52-2.55 3.64-4.64 3.64-12.996 0-8.354-15.47-12.996-15.47-12.996v25.992z" fill="#323030"/>
      <ellipse fill="#D8D8D8" cx="7.281" cy="20.886" rx="3.64" ry="13.46"/>
      <path d="M5.916 11.14l1.365 4.64 1.82-5.105-3.18.464zm2.274 7.89l1.82-2.785-.454 9.283L8.19 19.03zm-.454 10.21l-.455-8.354-2.27 5.106 2.73 3.25zM6.37 18.102l-1.364-3.714-.455 6.498 1.82-2.784z" fill="#323030"/>
    </g>
    <g transform="translate(186 185)">
      <ellipse fill="#322F2F" cx="8.892" cy="26" rx="8.892" ry="26"/>
      <path d="M9.485 52h15.413c4.587-3.324 4.743-6.047 4.743-16.93 0-10.884-20.15-16.93-20.15-16.93V52z" fill="#323030"/>
      <ellipse fill="#D8D8D8" cx="9.485" cy="27.209" rx="4.743" ry="17.535"/>
      <path d="M7.707 14.512l1.778 6.046 2.37-6.65-4.148.604zM10.67 24.79l2.372-3.627-.593 12.093-1.78-8.465zm-.592 13.303L9.485 27.21 6.52 33.86l3.558 4.233zM8.3 23.58l-1.78-4.836-.592 8.465 2.37-3.63z" fill="#323030"/>
    </g>
    <g transform="translate(303 179)">
      <ellipse fill="#322F2F" cx="8.892" cy="26" rx="8.892" ry="26"/>
      <path d="M9.485 52h15.413c4.587-3.324 4.743-6.047 4.743-16.93 0-10.884-20.15-16.93-20.15-16.93V52z" fill="#323030"/>
    </g>
    <path d="M123 211.555c-2-10.555-2-3.445-2-19.055 0-7.85 4.71-27.053 7.02-30.572 8.592-13.09 6.72-8.774 13.353-19.564 1.712-2.786 11.255-9.966 15.082-10.536 17.318-2.578 34.676-5.017 52.12-6.52 3.684-.317 27.073 1.2 27.073 1.2s7.612.435 11.352.603c7.77.36 18.698.38 22.5 2.89 11.544 7.63 3.24 1.83 14.74 9.87s9 13.29 21.228 10.4c.992-.23 2.09.8 3.035 1.39.633.39 1.437.796 1.647 1.51.297 1.01-1.123 2.518-.277 3.14l-5.687 1.91c4.31 3.175 10.418 2.758 15.224 5.116 22.016 10.8 20.624 24.56 19.42 48.234-.387 7.572-16.74 7.413-21.9 7.47-28.83.32-77.93 5.75-83.93 5.47-6-.28-17.414 1.9-21.092-2.006-10.253-10.89-5.167-18.14-11.167-32.254 0 0-4-10.88-11.13-6.66-10.29 6.093-4.11 27.97-4.11 36.185-7.67 0-16.63.727-29.04 0-2.69-.156-14.18-.29-15.08-2.633-4.13-10.774-1.98-7.78-4.13-18-3-14.287-8.64-9.465-9.22-8.894-3.35 3.296-5.02 21.31-5.02 21.31z" fill="#585A59"/>
    <path d="M148.5 135.5l4-6.5 31.5-6.5 3.5 5.5-4-.5-1-2.5-26 5.5-4 3.5-4 1.5zm73.5-8.625l37.5-4.34 3.5 5.965-4-1.032-1-2.633-26 2.04h-10z" fill="#565B60"/>
    <path d="M256.5 174.5L262 187h53.5l-1-13-58 .5zm-28.5 30l5 9.5h28.5l-.5-10.5-33 1zm37 0l50.5-1.5-3 9.5-44 2-3.5-10zm53-2v8.5l16-1 3-7.5h-19z" fill="#202B2F"/>
    <path d="M216 178l1.5 9.5 38-.5-8-14-22 1.5-9.5 3.5zm105.5-4l-.5 10.5h19.5L334 174h-12.5z" fill="#D2CAC2"/>
    <path d="M192 132.5c-2 3 4 27 4 27l104.5-1S272 134 266.5 132s-72.5-2.5-74.5.5zM133 160l13.5-21 11-3-11.5 24.5-13-.5zm29.5-25.5l-12 26.5H164l10.5-28.5-12 2zm9.5 17l6-19h6.5l2.5 21s-.796-1.31-7-2-8 0-8 0z" fill="#A4A1A1"/>
    <path d="M136.41 174.523c0 2.912.624 1.946 3.09 2.26 2.055.26 4.962.027 5.5-2.26m17-.523c0 2.91.624 1.946 3.09 2.26 2.054.26 4.96.027 5.5-2.26" stroke="#333232"/>
    <path d="M216.5 178l1 9 8 .5v-13l-9 3.5z" fill="#C7A370"/>
    <path d="M334.5 174l2 9h3.5l-5.5-9z" fill="#C7A270"/>
    <g transform="translate(280 178)" stroke="#979797">
      <ellipse cx="3.167" cy="3" rx="3.167" ry="3"/>
      <ellipse cx="7.389" cy="3" rx="3.167" ry="3"/>
      <ellipse cx="11.611" cy="3" rx="3.167" ry="3"/>
      <ellipse cx="15.833" cy="3" rx="3.167" ry="3"/>
    </g>
    <path d="M163 162.5s-6.096 7.48-7.5 16-.935 18.51 0 29.5c.935 10.99 4 12 4 12" stroke="#4F504F"/>
    <path d="M170.324 157.027c0 10.51 7.666 6.856 17.304 6.467" stroke="#4F5150"/>
  </g>
</svg>
