<svg width="840" height="225" viewBox="0 0 840 225" xmlns="http://www.w3.org/2000/svg">
  <title>
    Explain Your Family
  </title>
  <g fill="none" fill-rule="evenodd">
    <g transform="translate(8 8)">
      <path d="M137.23 151.63c.274.31.51.634.704.966.195.332.488.576.88.732-.196.977-.255 1.904-.177 2.783.078.88.137 1.83.176 2.85-.547 2.97-1.758 5.34-3.633 7.12-1.875 1.78-4.043 3-6.504 3.66 0 .39-.117.67-.35.82-.783.12-1.368.31-1.76.59-.39.28-.75.57-1.083.88-.332.31-.723.62-1.172.91-.44.3-1.14.52-2.08.68-.19.43-.45.71-.79.82-.33.12-.66.21-.99.27-.33.06-.65.16-.96.3-.31.14-.54.46-.7.97l-3.34 3.11c-.93-.23-1.76-.34-2.46-.32-.7.02-1.29-.01-1.76-.09-.46-.08-.83-.31-1.08-.7-.25-.39-.42-1.13-.49-2.22.04-.39.19-.65.44-.79s.42-.36.5-.68c0-.86.13-1.49.38-1.9.26-.41.58-.75.97-1.02s.8-.57 1.23-.91c.43-.33.81-.85 1.12-1.55.63-.27 1.32-.71 2.08-1.31.77-.6 1.46-1.2 2.08-1.78.98-.51 1.81-.96 2.49-1.35.69-.39 1.32-.78 1.91-1.17.59-.39 1.18-.82 1.76-1.29.59-.47 1.29-1.05 2.11-1.76-.19-.51-.55-.79-1.08-.85-.52-.06-1.12-.05-1.78.03-1.13-.35-2.23-.57-3.31-.67-1.07-.1-2.33-.18-3.78-.26-.55.04-.95.09-1.2.15s-.63.05-1.14-.03c-.23.2-.5.35-.79.47-.29.12-.6.22-.94.32l-.99.29c-.33.1-.63.23-.9.38-.78-.19-1.41-.56-1.87-1.11-.47-.54-1.03-.97-1.7-1.29-.08-.27-.02-.45.18-.52.2-.08.26-.31.18-.7-.39-.19-.58-.35-.56-.47.02-.11-.11-.27-.38-.46.16-.62.38-1.16.67-1.61.29-.45.62-.88.97-1.29.35-.41.7-.81 1.05-1.2.35-.39.67-.84.94-1.35.63-.15 1.16-.4 1.61-.73.45-.33.89-.69 1.32-1.08 2.11-.23 4.16-.3 6.15-.2 2 .1 3.98.31 5.95.62 1.97.32 3.95.75 5.92 1.29 1.97.55 3.99 1.14 6.06 1.76zm-22.5 33.69c-.077.586-.145 1.016-.204 1.29-.06.273-.088.527-.088.76 0 .235.03.528.088.88.06.352.166.898.322 1.64l.176.938-.82.176c-.196.04-.518.215-.967.527-.45.32-.85.57-1.2.77-.548.31-1.066.66-1.554 1.03s-.986.56-1.494.56c-.59-.31-1-.54-1.24-.7l-.71-.47c-.2-.35-.37-.7-.53-1.05-.16-.35-.33-.7-.53-1.05-.12-.27-.2-.45-.24-.53l-.09-.17c-.02-.03-.06-.06-.12-.08-.06-.02-.19-.13-.38-.32l-.35-.7c-.04-.31-.01-.61.08-.91.09-.29.18-.57.26-.85l.15-.44c.06-.17.09-.3.09-.38l-.35-.58.47-.64c.23-.43.41-.72.52-.88.11-.15.27-.33.47-.52l.52-.41c1.05-.04 1.91-.13 2.58-.29.66.12 1.09.24 1.29.38.19.14.39.28.58.44.43.31.74.47.93.47h1.17l-.12.88 1.23.29z" fill="#1F7A8C"/>
      <circle stroke="#1F7A8C" stroke-width="15" cx="118.5" cy="171.5" r="37.5"/>
      <path d="M56.23 18.63c.274.31.51.634.704.966.195.332.488.576.88.732-.196.977-.255 1.904-.177 2.783.078.88.137 1.83.176 2.85-.547 2.97-1.758 5.34-3.633 7.12-1.875 1.78-4.043 3-6.504 3.66 0 .39-.117.67-.35.82-.783.12-1.368.31-1.76.59-.39.28-.75.57-1.083.88-.332.31-.723.62-1.172.91-.44.3-1.14.52-2.08.68-.19.43-.45.71-.79.82-.33.12-.66.21-.99.27-.33.06-.65.16-.96.3-.31.14-.54.46-.7.97l-3.34 3.11c-.93-.23-1.76-.34-2.46-.32-.7.02-1.29-.01-1.76-.09-.46-.08-.83-.31-1.08-.7-.25-.39-.42-1.13-.49-2.22.04-.39.19-.65.44-.79s.42-.36.5-.67c0-.86.13-1.49.38-1.9.26-.41.58-.75.97-1.02s.8-.58 1.23-.91c.43-.33.81-.85 1.12-1.55.63-.27 1.32-.71 2.08-1.31.77-.6 1.46-1.2 2.08-1.78.98-.51 1.81-.95 2.49-1.35.69-.39 1.32-.78 1.91-1.17.59-.39 1.18-.82 1.76-1.29.59-.47 1.29-1.05 2.11-1.76-.19-.51-.55-.79-1.08-.85-.52-.06-1.12-.05-1.78.03-1.13-.35-2.23-.58-3.31-.67-1.07-.09-2.33-.18-3.78-.26-.55.04-.95.09-1.2.15s-.63.05-1.14-.03c-.23.2-.5.35-.79.47-.29.12-.6.22-.94.32l-.99.29c-.33.1-.63.22-.9.38-.78-.2-1.41-.57-1.87-1.11-.47-.55-1.03-.98-1.7-1.29-.08-.27-.02-.45.18-.53.2-.08.26-.31.18-.7-.39-.19-.58-.35-.56-.47.02-.11-.11-.27-.38-.47.16-.62.38-1.16.67-1.61.29-.45.62-.88.97-1.29.35-.41.7-.81 1.05-1.2.35-.39.67-.84.94-1.35.63-.15 1.16-.4 1.61-.73.45-.33.89-.69 1.32-1.08 2.11-.23 4.16-.3 6.15-.2 2 .09 3.98.3 5.95.61 1.97.32 3.95.75 5.92 1.29 1.97.55 3.99 1.14 6.06 1.76zm-22.5 33.69c-.077.586-.145 1.016-.204 1.29-.06.273-.088.527-.088.76 0 .235.03.528.088.88.06.352.166.898.322 1.64l.176.938-.82.176c-.196.04-.518.215-.967.527-.45.32-.85.57-1.2.77-.548.31-1.066.66-1.554 1.03s-.986.56-1.494.56c-.59-.31-1-.54-1.24-.7l-.71-.47c-.2-.35-.37-.7-.53-1.05-.16-.35-.33-.7-.53-1.05-.12-.27-.2-.45-.24-.53l-.09-.17c-.02-.03-.06-.06-.12-.08-.06-.02-.19-.13-.38-.32l-.35-.7c-.04-.31-.01-.61.08-.91.09-.29.18-.57.26-.85l.15-.44c.06-.17.09-.3.09-.38l-.35-.58.47-.64c.23-.43.41-.72.52-.88.11-.15.27-.33.47-.52l.52-.41c1.05-.04 1.91-.13 2.58-.29.66.12 1.09.24 1.29.38.19.14.39.28.58.44.43.31.74.47.93.47h1.18l-.12.88 1.23.29z" fill="#1F7A8C"/>
      <circle stroke="#1F7A8C" stroke-width="15" cx="37.5" cy="37.5" r="37.5"/>
      <path d="M229.23 18.63c.274.31.51.634.704.966.195.332.488.576.88.732-.196.977-.255 1.904-.177 2.783.078.88.137 1.83.176 2.85-.547 2.97-1.758 5.34-3.633 7.12-1.875 1.78-4.043 3-6.504 3.66 0 .39-.117.67-.35.82-.783.12-1.368.31-1.76.59-.39.28-.75.57-1.083.88-.332.31-.723.62-1.172.91-.44.3-1.14.52-2.08.68-.19.43-.45.71-.79.82-.33.12-.66.21-.99.27-.33.06-.65.16-.96.3-.31.14-.54.46-.7.97l-3.34 3.11c-.93-.23-1.76-.34-2.46-.32-.7.02-1.29-.01-1.76-.09-.46-.08-.83-.31-1.08-.7-.25-.39-.42-1.13-.49-2.22.04-.39.19-.65.44-.79s.42-.36.5-.67c0-.86.13-1.49.38-1.9.26-.41.58-.75.97-1.02s.8-.58 1.23-.91c.43-.33.81-.85 1.12-1.55.63-.27 1.32-.71 2.08-1.31.77-.6 1.46-1.2 2.08-1.78.98-.51 1.81-.95 2.49-1.35.69-.39 1.32-.78 1.91-1.17.59-.39 1.18-.82 1.76-1.29.59-.47 1.29-1.05 2.11-1.76-.19-.51-.55-.79-1.08-.85-.52-.06-1.12-.05-1.78.03-1.13-.35-2.23-.58-3.31-.67-1.07-.09-2.33-.18-3.78-.26-.55.04-.95.09-1.2.15s-.63.05-1.14-.03c-.23.2-.5.35-.79.47-.29.12-.6.22-.94.32l-.99.29c-.33.1-.63.22-.9.38-.78-.2-1.41-.57-1.87-1.11-.47-.55-1.03-.98-1.7-1.29-.08-.27-.02-.45.18-.53.2-.08.26-.31.18-.7-.39-.19-.58-.35-.56-.47.02-.11-.11-.27-.38-.47.16-.62.38-1.16.67-1.61.29-.45.62-.88.97-1.29.35-.41.7-.81 1.05-1.2.35-.39.67-.84.94-1.35.63-.15 1.16-.4 1.61-.73.45-.33.89-.69 1.32-1.08 2.11-.23 4.16-.3 6.15-.2 2 .09 3.98.3 5.95.61 1.97.32 3.95.75 5.92 1.29 1.97.55 3.99 1.14 6.06 1.76zm-22.5 33.69c-.077.586-.145 1.016-.204 1.29-.06.273-.088.527-.088.76 0 .235.03.528.088.88.06.352.166.898.322 1.64l.176.938-.82.176c-.196.04-.518.215-.967.527-.45.32-.85.57-1.2.77-.548.31-1.066.66-1.554 1.03s-.986.56-1.494.56c-.59-.31-1-.54-1.24-.7l-.71-.47c-.2-.35-.37-.7-.53-1.05-.16-.35-.33-.7-.53-1.05-.12-.27-.2-.45-.24-.53l-.09-.17c-.02-.03-.06-.06-.12-.08-.06-.02-.19-.13-.38-.32l-.35-.7c-.04-.31-.01-.61.08-.91.09-.29.18-.57.26-.85l.15-.44c.06-.17.09-.3.09-.38l-.35-.58.47-.64c.23-.43.41-.72.52-.88.11-.15.27-.33.47-.52l.52-.41c1.05-.04 1.91-.13 2.58-.29.66.12 1.09.24 1.29.38.19.14.39.28.58.44.43.31.74.47.93.47h1.17l-.12.88 1.23.29z" fill="#1F7A8C"/>
      <circle stroke="#1F7A8C" stroke-width="15" cx="210.5" cy="37.5" r="37.5"/>
      <path d="M180.026 78.244l-45.658 50.35m-74-50.35l45.658 50.35" stroke="#1F7A8C" stroke-width="15" stroke-linecap="square"/>
    </g>
    <path d="M307.83 65.22c-.443-.444-.762-.97-.956-1.582-.195-.61-.653-1.11-1.375-1.5-.12-.832-.27-1.79-.46-2.873-.2-1.083-.39-2.193-.59-3.332-.2-1.138-.34-2.276-.42-3.415-.09-1.138-.04-2.18.12-3.123.11-.5.29-.972.54-1.416.25-.45.5-.88.75-1.3.25-.42.44-.85.58-1.29.14-.45.15-.89.04-1.34.33-.06.54-.24.62-.54.08-.31.35-.41.79-.3.39-1.22.81-2.36 1.25-3.42.44-1.06.92-2.09 1.42-3.08.5-1 1.01-2.02 1.54-3.05.52-1.03 1.01-2.18 1.45-3.46-.95-.89-1.63-1.85-2.04-2.88-.42-1.03-.74-2.07-.96-3.12-.22-1.06-.39-2.13-.5-3.21-.11-1.09-.34-2.18-.67-3.29.66-1 1.47-1.82 2.41-2.46.94-.64 1.98-1.17 3.12-1.58 1.14-.42 2.37-.75 3.7-1s2.75-.54 4.25-.88c2.67-.83 5.05-1.48 7.16-1.95 2.11-.47 4.16-.86 6.16-1.17 2-.31 4.08-.59 6.24-.84s4.66-.62 7.49-1.12c.05.16.15.25.29.25h.54c.17.39.47.58.92.58 0-.17-.02-.32-.04-.46-.03-.14-.05-.27-.05-.38.11 0 .26.02.46.08.19.05.36.11.5.16s.26.04.38-.05c.11-.08.14-.26.08-.54.67 1.16 1.53 2.12 2.58 2.87s2.22 1.4 3.5 1.95c.05.5.07.86.04 1.08-.03.22-.07.43-.13.62s-.08.41-.08.66c0 .25.05.6.16 1.04-.89 1.5-1.9 2.66-3.04 3.5-1.14.83-2.34 1.47-3.62 1.91-1.28.45-2.62.78-4.04 1-1.42.22-2.86.46-4.33.71-1.47.25-2.96.6-4.46 1.04-1.5.45-2.97 1.11-4.41 2-.45-.16-.85-.23-1.21-.21-.36.03-.74.1-1.13.21-.39.11-.82.22-1.29.34-.48.11-1.05.11-1.71 0-.45.39-.96.67-1.54.83-.59.17-1.18.33-1.79.5.27.61.4 1.22.37 1.83-.03.61.04 1.14.21 1.59 2.33.22 4.91.21 7.75-.04s5.6-.43 8.33-.54c.05.28.02.47-.09.58-.11.11-.16.3-.16.58.5.33.97.75 1.42 1.25.45.5.9.98 1.38 1.45.47.47.96.86 1.46 1.16.5.3 1.08.43 1.75.37.27.56.47 1.14.58 1.75.11.61.03 1.25-.25 1.92-1.11.72-2.2 1.46-3.25 2.21-1.06.75-2.15 1.43-3.29 2.04-1.14.61-2.37 1.11-3.71 1.5-1.33.38-2.78.55-4.33.5h-.71c-.2 0-.43-.12-.71-.34-.56.28-1.29.37-2.21.29-.92-.09-1.68.01-2.29.29-.78-.28-1.68-.42-2.71-.42s-1.93-.14-2.71-.41c-1 1.44-1.95 2.95-2.83 4.54-.89 1.58-1.67 3.26-2.34 5.04 2.27.33 4.16.47 5.66.41s2.91-.17 4.25-.34c1.33-.17 2.7-.34 4.12-.5 1.42-.17 3.15-.23 5.21-.17 1.38-.66 2.98-1.12 4.79-1.37 1.8-.25 3.48-.63 5.04-1.13.55.17 1.02.49 1.41.96.38.47.76.94 1.12 1.42.36.47.73.87 1.12 1.21.39.33.89.44 1.5.33.28.28.46.61.54 1 .09.39.17.75.25 1.08.08.33.21.59.38.79.16.19.47.26.91.21-1.06 2.16-2.24 3.83-3.54 4.99-1.31 1.16-2.78 2.07-4.42 2.7-1.64.64-3.47 1.11-5.5 1.42-2.03.31-4.29.68-6.79 1.13-.61.11-1.12.09-1.54-.04-.42-.14-.85-.21-1.29-.21-1.56.28-3.4.55-5.54.83-2.14.28-4.29.39-6.46.33s-4.25-.34-6.25-.84c-2-.5-3.66-1.39-5-2.67zm77.714.667c-.833-2.776-2.04-5.442-3.624-7.996-1.582-2.55-3.095-4.74-4.54-6.58-2.276 1.73-4.428 3.63-6.454 5.71-2.027 2.09-3.873 4.32-5.54 6.71-.11 1.17-.25 2.13-.416 2.88-.166.75-.458 1.38-.874 1.88-.417.5-.944.93-1.583 1.29-.638.36-1.457.74-2.457 1.13-1.832-1.33-3.165-2.98-3.998-4.96-.833-1.97-.944-3.93-.333-5.87.055-1.39.402-2.75 1.04-4.08.64-1.33 1.417-2.59 2.333-3.79.916-1.19 1.902-2.33 2.957-3.41s2.055-2.09 3-3.04c.165-.55.484-1.04.956-1.45.48-.41.98-.82 1.5-1.21.53-.39 1.06-.8 1.59-1.25.53-.44.96-.97 1.29-1.58-.38-1.27-1.13-2.57-2.25-3.87-1.11-1.3-2.13-2.65-3.08-4.04-.11-.28-.32-.36-.62-.25-.3.11-.51.08-.62-.08.11-.72-.04-1.5-.46-2.33-.41-.83-.93-1.55-1.54-2.16.17-.61.36-1.35.58-2.21.22-.86.17-1.82-.16-2.87 0-.44.09-.87.25-1.29.17-.42.34-.81.5-1.17.17-.36.31-.72.42-1.08.11-.36.09-.71-.08-1.04.72-.11 1.36-.08 1.92.08.56.17 1.09.36 1.59.59.5.23.96.39 1.37.5.42.11.85.09 1.29-.08-.05.28-.05.48 0 .59.06.11.14.2.25.25.11.06.23.13.34.21.11.09.17.21.17.38.89.28 1.86.87 2.92 1.79 1.06.92 2.07 1.93 3.04 3.04s1.85 2.22 2.63 3.33l1.73 2.47c1.34-.83 2.78-1.82 4.33-2.95l4.83-3.54c1.67-1.22 3.35-2.37 5.04-3.46 1.7-1.08 3.35-1.96 4.96-2.62.95.45 1.68.99 2.21 1.63.53.64.98 1.31 1.34 2 .36.7.68 1.42.95 2.17.28.75.66 1.4 1.16 1.96-.45.94-.93 1.74-1.46 2.37-.53.64-.91 1.38-1.13 2.21-1.17.5-2.56 1.25-4.17 2.25-1.44.89-3.2 2.08-5.29 3.58-2.08 1.5-4.59 3.5-7.54 6 .67.78 1.22 1.53 1.67 2.25.45.72.81 1.34 1.08 1.83l.75 1.67c.5.39.91.84 1.25 1.34.33.5.65 1.02.96 1.54.31.53.65 1.03 1.04 1.5s.89.85 1.5 1.13c.34 1.67.81 3.15 1.42 4.46.61 1.31.89 2.65.83 4.04-.38 1.28-.95 2.33-1.7 3.17-.75.83-1.29 1.69-1.62 2.58l-1.5.5c-.5.17-.88.42-1.16.75l-4.74-3.41zM431.27 16.41c2.333.28 4.416.75 6.248 1.417 1.833.666 3.387 1.555 4.665 2.665.888 1.39 1.735 2.888 2.54 4.498.805 1.61 1.416 3.29 1.832 5.04.417 1.75.61 3.54.584 5.372-.03 1.832-.44 3.692-1.21 5.58-1.61 2-3.57 3.624-5.87 4.873-2.31 1.25-4.79 2.263-7.46 3.04-2.67.778-5.43 1.444-8.29 2-2.86.555-5.65 1.11-8.37 1.665.05 1.277.07 2.624.04 4.04-.03 1.416-.17 2.832-.42 4.248-.25 1.416-.63 2.79-1.13 4.123-.5 1.34-1.17 2.56-2 3.67-.95 0-1.92.13-2.92.38s-1.89.46-2.67.63c-.39-.22-.74-.43-1.04-.62-.31-.19-.74-.32-1.29-.37.11-.55-.03-1.12-.42-1.7-.39-.58-.78-1.18-1.17-1.79-.39-.61-.65-1.19-.79-1.75-.14-.55.12-1.08.79-1.58-.39-.39-.58-.89-.58-1.5.38-.66.73-1.58 1.04-2.75.3-1.16.55-2.32.75-3.45.19-1.13.23-2.18.12-3.12-.11-.94-.67-1.64-1.67-2.08.05-.11.16-.17.33-.17.16 0 .33-.03.5-.08-.45-.33-.71-.8-.8-1.41-.09-.61-.29-1.14-.63-1.58.11-.28.19-.53.25-.75.05-.22.25-.3.58-.25-.17-1-.15-1.94.04-2.83.19-.89.48-1.73.87-2.54.39-.8.86-1.59 1.41-2.37.55-.77 1.08-1.55 1.58-2.33.39-.05.63 0 .71.17.08.17.26.14.54-.08.72-.55 1.22-1.14 1.5-1.75.28-.61.42-1.3.42-2.08.39-1.17.86-2.35 1.41-3.54.56-1.19 1.17-2.29 1.83-3.29s1.4-1.89 2.21-2.67 1.65-1.36 2.54-1.75c.67-.55 1.5-1.07 2.5-1.54s2.08-.83 3.25-1.08c1.16-.25 2.34-.39 3.54-.41 1.19-.03 2.29.1 3.29.38.27.11.43.06.46-.16.03-.22.13-.33.29-.33zm-3.414 19.908c1.388-.61 2.874-1.097 4.456-1.458 1.583-.36 2.902-1.04 3.957-2.04-.67-.61-1.64-1.152-2.92-1.624-1.28-.472-2.67-.764-4.17-.875-1.5-.11-3.02.02-4.54.38-1.53.36-2.85 1.04-3.96 2.04-.34 1-.61 1.79-.84 2.38-.22.59-.53 1.29-.92 2.13.11.28.29.49.54.63.25.14.43.35.54.63 1.27-.66 2.57-1.04 3.87-1.12 1.3-.08 2.62-.43 3.96-1.04zm38.73 30.818c-1.553.5-3.247 1-5.08 1.5-1.832.5-3.664.75-5.497.75-2.78 0-4.97-.695-6.58-2.083-.28-.61-.53-1.027-.75-1.25-.17-.222-.32-.458-.46-.707-.14-.25-.24-.597-.29-1.042-.67-.777-1.2-1.68-1.59-2.707-.39-1.027-.65-2.082-.79-3.165-.14-1.083-.17-2.18-.09-3.29.08-1.11.26-2.165.54-3.165.11-.222.18-.444.21-.666.02-.22.07-.47.12-.75.22-.88.46-1.74.71-2.58.25-.83.59-1.55 1.04-2.16-.22-.5-.22-1.05 0-1.66.22-.61.47-1.16.75-1.66.77-2.11 1.43-3.9 1.95-5.37.53-1.47 1.07-2.93 1.62-4.37.94-2.49 1.83-4.97 2.66-7.41.83-2.44 1.58-5.08 2.25-7.91.44-.27.77-.47 1-.58.33-.11.61-.19.83-.25 1 .5 2.16.99 3.5 1.46 1.33.47 2.44.71 3.33.71.44.28.72.49.83.63.11.14.22.27.33.38.61.73 1.14 1.46 1.58 2.21.44.75.58 1.74.42 2.96-.34.5-.59.75-.75.75-.28 1.11-.57 2.05-.88 2.83-.31.78-.63 1.56-.96 2.33-.39.84-.75 1.67-1.08 2.5-.34.83-.61 1.86-.84 3.08-.22.28-.38.53-.46.75-.09.23-.18.48-.29.75-.11.28-.24.57-.38.88-.14.31-.35.57-.63.79-.16 1.45-.43 2.61-.79 3.5-.36.89-.73 1.78-1.12 2.67-.67 1.61-1.27 3.22-1.79 4.83-.53 1.61-.85 3.44-.96 5.5.28-.11.54-.17.79-.17h.71c.5 0 1.08.08 1.75.25 1.66-.89 3.48-1.42 5.45-1.58 1.97-.17 3.93-.28 5.87-.33h2.33c.78 0 1.5-.06 2.16-.17.5.28.82.43.96.46.14.03.35.04.63.04.39 0 .72.03 1 .09.67.61 1.3 1.05 1.91 1.33.61.28 1.25.53 1.91.75.61.22 1.21.46 1.79.71.58.25 1.15.6 1.71 1.04l.59 3.58c.39.5.55.83.5 1 0 .45-.11.78-.34 1l.17.92c-.84.17-1.4.36-1.71.59-.31.22-.6.47-.88.75-.45.06-.76.08-.96.08H484c-.78 0-1.72.14-2.83.42-1.5-.5-3.055-.75-4.666-.75-.61 0-1.25.03-1.92.09l-2 .17c-.67.11-1.35.19-2.04.25-.698.06-1.406.08-2.128.08l-1.92.5zm67.552-6.08c-.333.944-.82 1.902-1.458 2.874-.638.97-1.388 1.832-2.25 2.582-.86.75-1.817 1.374-2.872 1.874s-2.166.777-3.332.833c-.722-.17-1.208-.35-1.458-.55-.25-.2-.513-.38-.79-.54-.168-.11-.32-.21-.46-.3-.138-.09-.263-.15-.374-.21l-1-.42.334-1.09c.11-.45.083-.79-.084-1.04-.166-.25-.5-.6-1-1.05l-.5-.5c-.165-.17-.304-.33-.415-.5l-1.42-1.58 2.25-.59c1.38-.39 2.31-.89 2.79-1.5.47-.61.65-1.64.54-3.09-1.11-.22-2.04-.25-2.79-.08-.75.17-1.52.36-2.29.58-1 .27-2.02.51-3.04.7-1.03.19-2.15.29-3.38.29-.45 0-.86-.02-1.25-.04-.39-.03-.81-.07-1.25-.13l-.84-.17c-.11-.61-.22-.95-.34-1.04-.11-.08-.22-.18-.34-.29-.28-.28-.57-.65-.88-1.12-.31-.47-.38-1.07-.21-1.79-.28-.5-.45-1-.5-1.5-.34.67-.59 1.36-.75 2.08l-.33.83-.84.17c-.11.05-.2.18-.25.37-.06.19-.09.35-.09.46l-.42 1.42c-.11.11-.22.21-.34.29-.11.08-.22.18-.33.29-.11.5-.25 1-.42 1.5-.16.5-.33.97-.5 1.42-.27.72-.51 1.43-.7 2.12-.2.7-.27 1.38-.21 2.04l-.33.92c-.28.33-.58.6-.92.79-.34.2-.67.38-1 .54-.11.11-.27.21-.46.29-.2.08-.35.15-.46.21l-.25.91-1 .16c-.61.11-1.04.19-1.29.25-.25.05-.55.08-.88.08l-.83-.08c-.61-.5-1.08-.9-1.42-1.21-.33-.31-.72-.6-1.16-.87-.5-.67-.77-1.17-.83-1.5-.05-.33-.11-.64-.17-.92-.11-.34-.18-.61-.21-.84-.03-.22-.1-.39-.21-.5l-1.08-1 .92-.75.08-1.41c1.11-2.83 2.29-5.55 3.54-8.16 1.25-2.61 2.54-5.28 3.87-8 .44-.89.87-1.78 1.29-2.67.41-.89.85-1.78 1.29-2.67-.06-.17-.09-.36-.09-.58 0-.23.06-.48.17-.75.61-.95 1.11-1.79 1.5-2.54l1.16-2.29c.44-.95.9-1.86 1.37-2.75.47-.89 1.07-1.81 1.79-2.75l1.33-.59.58-.21c.23-.08.48-.13.75-.13l1.25.16c1.56-.72 2.92-1.73 4.08-3.04 1.17-1.3 2.36-2.87 3.59-4.7l.83-1.16 1.08.67c.28.17.67.32 1.17.46.5.14 1.02.29 1.58.46 1 .22 1.94.47 2.83.75.89.28 1.61.69 2.16 1.25.33.89.53 1.55.58 2 .06.44.14.89.25 1.33.17.94.32 1.88.46 2.83.14.94.24 1.99.29 3.16.28.94.52 1.87.71 2.79.19.91.37 1.84.54 2.79.28 1.33.56 2.62.83 3.87.28 1.25.64 2.43 1.08 3.54.44 0 .72.03.83.08.28-.11.57-.2.87-.25.31-.06.65-.11 1.04-.17l.92-.08.34.83c.05.28.33.56.83.83.72.05 1.25.21 1.58.46.33.25.64.51.91.79.22.22.44.39.66.5l1.25.5-.67 1.25c-.55 1-1.34 1.95-2.37 2.87-1.02.91-2.18 1.68-3.45 2.29.06.33.1.65.13.96.02.3.09.62.21.96.16.94.3 1.91.41 2.91.11 1 .11 2.03 0 3.08l-.16.34zm-24.072-14.41c1.666-.11 3.18-.236 4.54-.374 1.36-.14 2.873-.375 4.54-.708-.39-1.666-.806-3.402-1.25-5.206-.445-1.805-.917-3.596-1.416-5.373l-.5.833c-1.11 1.166-2.18 2.47-3.207 3.915-1.027 1.444-1.902 2.804-2.624 4.08l-1 1.5c-.34.5-.64 1-.92 1.5.33-.056.65-.083.96-.083.3 0 .59-.028.87-.084zm47.227 15.576c.278 1.666.18 2.97-.29 3.915-.473.944-1.14 1.652-2 2.124-.86.48-1.847.74-2.957.8-1.11.06-2.166 0-3.165-.16-.55-.78-1.05-1.75-1.5-2.91-.44-1.16-.86-2.37-1.24-3.62-.39-1.25-.73-2.48-1.04-3.7-.3-1.22-.57-2.3-.79-3.24.28-.66.46-1.43.54-2.29.09-.86.14-1.73.17-2.62l.09-2.71c.03-.91.1-1.79.21-2.62.39-2.33.96-4.55 1.71-6.66.75-2.11 1.35-4.3 1.79-6.58.11-.5.07-.97-.12-1.41-.19-.45-.23-.86-.12-1.25.06-.22.23-.38.5-.46.28-.08.45-.26.5-.54.17-.61.21-1.11.13-1.5-.08-.39.02-.86.29-1.41.28-.44.63-1.09 1.04-1.96.42-.86.57-1.76.46-2.7.5-.33.97-.72 1.42-1.16.44-.44.9-.84 1.37-1.2.47-.36 1-.68 1.58-.96.59-.27 1.3-.41 2.13-.41.45.56.74 1.17.88 1.83l.42 2c.14.67.35 1.29.63 1.88s.75 1.04 1.42 1.37v1.67c0 .67.03 1.32.09 1.96.06.64.18 1.22.38 1.75.19.52.51.87.96 1.04-1 2.66-1.93 5.3-2.79 7.91-.86 2.61-1.57 5.23-2.13 7.87-.55 2.64-.9 5.29-1.04 7.96s.04 5.36.54 8.08zm26.737-9.33c-.5.112-.86.404-1.083.876-.222.472-.43.958-.624 1.457-.195.5-.39.958-.583 1.375-.195.416-.486.625-.875.625-.056.444-.208.832-.458 1.166-.25.34-.486.68-.708 1.05-.23.36-.39.75-.5 1.17-.12.42-.06.9.16 1.46-.45.34-.72.81-.84 1.42-.11.61-.24 1.2-.38 1.75-.14.56-.38 1.03-.71 1.42-.34.39-.95.56-1.84.5-.17.22-.2.36-.09.42.11.06.19.25.25.59-.61-.11-1.07-.07-1.37.13-.31.2-.68.32-1.13.38-1.06-.33-1.93-.92-2.63-1.75s-1.31-1.76-1.83-2.79c-.53-1.03-1-2.07-1.42-3.12-.42-1.05-.82-1.97-1.21-2.75.16-.61.19-1.2.08-1.79-.12-.58-.31-1.07-.59-1.45 2.72-5.78 5.69-11.94 8.91-18.49 3.22-6.56 6.27-13.03 9.16-19.41 1.27.5 2.54 1.07 3.79 1.71 1.25.63 2.38 1.37 3.41 2.2 1.03.84 1.9 1.79 2.62 2.88.72 1.08 1.19 2.29 1.41 3.62-.11.33-.24.46-.38.37-.14-.08-.27-.04-.38.13.22.27.35.47.38.58.03.11.03.22 0 .33-.03.11-.04.27-.04.46s.08.46.25.79c-.23-.05-.38-.02-.46.09-.09.11-.27.11-.54 0 .22.61.29 1.11.2 1.5-.09.39-.21.74-.38 1.04-.17.31-.31.64-.42 1-.11.36-.08.82.08 1.38-.17 0-.3.04-.38.13-.09.09-.16.17-.21.25-.06.09-.13.17-.21.25-.08.09-.21.1-.37.04.16 1.23.22 2.45.16 3.67-.06 1.23-.1 2.46-.13 3.71s-.01 2.56.04 3.92c.06 1.36.25 2.76.59 4.21 2-1.17 3.59-2.67 4.79-4.5 1.19-1.84 2.16-3.89 2.91-6.17s1.32-4.72 1.71-7.33c.39-2.61.81-5.28 1.25-8 .5-.5.89-1.11 1.17-1.83.28-.72.53-1.48.75-2.29l.66-2.42c.22-.8.5-1.54.84-2.21.83.11 1.54.38 2.13.79.58.42 1.12.86 1.62 1.34s1.02.92 1.58 1.34c.55.42 1.25.68 2.08.79.66.95 1.27 1.86 1.83 2.75.55.89.91 1.83 1.08 2.83-.28.45-.49.95-.63 1.5-.14.56-.29 1.11-.46 1.67-.17.56-.39 1.07-.67 1.54-.28.48-.67.88-1.17 1.21-.17 1.45-.38 2.77-.63 3.96s-.5 2.38-.75 3.54-.46 2.38-.62 3.63c-.17 1.25-.23 2.63-.17 4.13l-1.42 4.08c-.5 1.44-.89 2.75-1.17 3.91-.89.72-1.58 1.58-2.08 2.58s-1.03 2-1.59 3c-.22.22-.36.28-.42.17-.05-.11-.25-.19-.58-.25.06.22.06.39 0 .5-.05.11-.12.21-.21.29-.08.09-.14.21-.16.38-.03.17.01.39.12.67-.78.33-1.47.81-2.08 1.42-.61.61-1.26 1.17-1.96 1.67s-1.53.84-2.5 1c-.97.17-2.23-.03-3.79-.58-2.27-1.67-4.29-3.58-6.04-5.75-1.74-2.17-3.17-4.75-4.28-7.75zm75.047 17.91c-4.887-.667-7.857-3.25-8.913-7.747l.084-.916.75-2.25c.277-.95.582-1.88.916-2.79.333-.92.888-1.74 1.665-2.46.16-.5.48-1.27.95-2.29.47-1.03 1.26-2.57 2.37-4.63.89-1.61 1.59-2.89 2.12-3.83.53-.95.96-1.67 1.29-2.17-.56-1-1.33-1.97-2.33-2.92-.89-1.67-1.66-3.26-2.29-4.79-.64-1.53-1.13-2.9-1.46-4.12-.06-1.34-.28-2.7-.67-4.09l-.5-2.17c-.17-.72-.25-1.47-.25-2.25-.23-.39-.42-.89-.59-1.5l.17-1c.28-.45.34-1.04.21-1.79-.14-.75-.32-1.52-.55-2.29-.17-.73-.32-1.49-.46-2.3s-.18-1.6-.13-2.38c.06-.78.26-1.53.62-2.25s.98-1.33 1.87-1.83l.83-.59.83.5c.61.39 1.19.72 1.75 1l1.66.83c.67.33 1.33.68 2 1.04.66.36 1.39.76 2.16 1.21l.83.58-.08.92c0 .11.03.25.08.42.06.16.14.3.25.41l.92.25.08 1.17v1c0 .5.03.84.09 1.04.05.19.16.4.33.62l.41 1.08c0 1 .08 1.89.25 2.66.17.78.36 1.55.58 2.33.27.77.5 1.56.66 2.37.16.8.19 1.68.08 2.62.33-.17.66-.42 1-.75.11-.11.23-.22.37-.33.14-.11.29-.22.46-.33l5.83-7.92-.17-1 2.08-2c.55-.44 1.08-.9 1.58-1.37.5-.47.91-1.02 1.25-1.63l.5-.75c2.49-3.33 5.72-5.39 9.66-6.17l1.43-.32.41 1.33c.28.78.82 1.46 1.62 2.04s1.68 1.15 2.62 1.71l.91.59c.33.67.5 1.17.5 1.5 0 .33-.03.61-.08.83l.41 1.09c-.61 1.61-1.27 2.76-2 3.46-.72.69-1.47 1.34-2.25 1.95-.61.5-1.17 1-1.67 1.5s-.88 1.05-1.16 1.66l-.66.83c-1.39.73-2.27 1.78-2.66 3.17l-.34 1.17h-1.25c-.05 0-.19.13-.41.38-.22.25-.55.85-1 1.79-.5.67-.85 1.1-1.04 1.29l-.46.46c-.11.27-.21.52-.29.75-.08.22-.18.5-.29.83l-.5.66c-.5.44-.86.87-1.08 1.29-.22.42-.47.9-.75 1.46-.22.5-.47 1.01-.75 1.54s-.67 1.04-1.17 1.54l.17.92-.67.58c-.45.39-.83.87-1.17 1.46-.33.58-.66 1.18-1 1.79-.33.66-.69 1.33-1.08 2-.39.66-.89 1.27-1.5 1.83-.39 1-.73 1.77-1.04 2.33-.3.55-.82 1.22-1.54 2-.67 2.66-2.25 5.52-4.75 8.57-.05.61-.23 1.21-.54 1.79-.3.58-.62 1.12-.96 1.62-.11.22-.23.46-.37.71-.14.25-.24.43-.29.54l-.25.92c-.33.61-.68 1.11-1.04 1.5-.36.38-.71.75-1.04 1.08-.17.11-.32.24-.46.41-.14.16-.27.3-.38.41l-1.42.5zm75.63-27.737c-.056.666 0 1.305.166 1.915.167.61.375 1.208.625 1.79.25.584.486 1.18.708 1.792.222.61.39 1.222.5 1.833.11.777.11 1.624 0 2.54-.11.916-.306 1.805-.583 2.665-.278.86-.64 1.638-1.083 2.333-.445.694-.972 1.207-1.583 1.54-.777 1-1.72 1.777-2.832 2.333-1.11.555-2.138 1.22-3.082 2-.61.387-1.29.665-2.04.832-.75.166-1.513.333-2.29.5-.612.333-1.334.68-2.166 1.04-.833.36-1.694.695-2.583 1-.888.305-1.776.528-2.665.666-.89.14-1.67.18-2.34.125-1.67.61-3.29 1.01-4.88 1.2-1.58.19-3.43.07-5.54-.38-2 .28-3.85.19-5.54-.25-1.7-.45-3.2-1.15-4.5-2.13-1.31-.97-2.45-2.14-3.42-3.5-.97-1.36-1.77-2.79-2.38-4.29-.45-3.17-.34-6.04.33-8.62.66-2.59 1.62-4.97 2.87-7.17s2.68-4.22 4.29-6.08c1.61-1.86 3.16-3.68 4.66-5.46.33.11.59.1.79-.04.19-.14.37-.34.54-.59.17-.25.35-.49.54-.71.19-.22.43-.36.7-.42.39-.83.96-1.46 1.71-1.87.75-.42 1.35-1.02 1.79-1.79.5-.11.92-.28 1.25-.5.33-.22.65-.47.96-.75.3-.28.62-.54.96-.79.33-.25.72-.43 1.16-.55v-.91c1-.44 1.74-.96 2.21-1.54l1.71-2.13c.5-.06.9-.09 1.2-.09.31 0 .76-.06 1.37-.17.44-.78.84-1.36 1.21-1.75.36-.39.9-.81 1.62-1.25.67.33 1.4.55 2.21.66.8.11 1.51.47 2.12 1.08.05.55.22.98.5 1.29.27.3.58.58.91.83.33.25.65.51.96.79.3.28.51.66.62 1.16.22.06.37.03.46-.08.08-.11.23-.14.46-.09.16.78.36 1.29.58 1.54.22.25.44.74.66 1.46-.28.56-.49 1.12-.63 1.71-.14.58-.49 1.01-1.04 1.29-.06.39.05.6.33.62.28.03.45.18.5.46.06.5-.03.86-.25 1.08 1.33 2.17 2.53 4.46 3.58 6.87 1.05 2.42 2.25 4.71 3.58 6.88zm-10.412 7.913c.222-.61.514-1.11.875-1.5.36-.388.57-.97.624-1.75-.277-.443-.444-.79-.5-1.04-.055-.25-.083-.652-.083-1.208-1.22-1.72-2.27-3.567-3.16-5.54-.89-1.97-1.89-3.816-3-5.538-.11.222-.3.445-.58.667-.27.22-.58.16-.91-.17-.11.44-.3.76-.58.96-.27.19-.58.27-.91.25-.33-.03-.68-.11-1.04-.25s-.68-.32-.96-.54c-1.61 1.27-3.22 2.52-4.83 3.74-1.61 1.22-3.05 2.63-4.33 4.25-.22.11-.36.15-.41.12-.05-.03-.22.01-.5.12-.44 1.05-.98 2.01-1.62 2.87-.63.86-1.26 1.73-1.87 2.62-.61.89-1.14 1.83-1.58 2.83-.44 1-.69 2.16-.75 3.49.95.78 2.06 1.25 3.34 1.41 1.28.17 2.6.19 3.96.08 1.36-.11 2.7-.29 4-.54 1.31-.25 2.51-.38 3.62-.38 2.34-.56 4.34-1.29 6-2.21 1.67-.92 3.42-1.85 5.25-2.79zm62.97-30.32c.11 1.223.305 2.278.582 3.166.278.89.583 1.75.917 2.582.277.778.54 1.54.79 2.29s.43 1.653.542 2.708c-.444 1.444-.763 2.776-.958 3.998-.194 1.22-.402 2.5-.624 3.83-.89 1.945-1.75 3.666-2.582 5.165-.833 1.5-1.5 2.805-2 3.915-.277.278-.513.597-.707.958-.195.36-.403.736-.625 1.125-.11.166-.25.416-.417.75-.166.332-.305.554-.416.665l-1.666-.583-.33 2.083-1.16.333-.83 1c-1.05 1.832-2.16 3.373-3.33 4.622-1.16 1.25-2.48 2.36-3.95 3.332-1.47.972-3.13 1.874-4.99 2.707-1.86.833-3.95 1.75-6.29 2.75-.94-.112-1.76-.182-2.45-.21-.69-.027-1.34-.07-1.95-.125-1.05 0-2.36-.09-3.91-.25-.16-.45-.41-.75-.75-.92-.33-.17-.64-.25-.91-.25-.95-.45-1.66-1.1-2.13-1.96-.47-.86-.93-1.79-1.38-2.79-.27-.61-.55-1.18-.83-1.71-.28-.53-.58-1.07-.91-1.63l1.41-.42-1.83-2c-.11-.17-.25-.32-.41-.46-.17-.14-.31-.29-.42-.46l-.08-1.33c-.17-3.84-.24-7.35-.21-10.54.03-3.2.46-6.04 1.29-8.54v-.92c.17-1.23.34-2.24.5-3.04.17-.81.31-1.57.42-2.29.17-1.23.42-2.36.75-3.42.78-.17 1.36-.49 1.75-.96.39-.47.72-.91 1-1.29.78-.06 1.31.05 1.58.33.28.28.56.72.84 1.33.28.5.63 1.05 1.04 1.66.42.61 1.04 1.08 1.88 1.41.11.45.27.91.46 1.38.19.47.4.98.62 1.54.45.94.85 1.93 1.21 2.96s.57 2.01.63 2.95c-.55 1.05-.98 2.28-1.29 3.66-.3 1.39-.5 2.79-.58 4.21-.08 1.42-.06 2.78.08 4.08.14 1.31.38 2.4.71 3.29l.5 1.08 1.42-.17c1.67-.44 3.18-.93 4.54-1.46 1.36-.53 2.62-1.15 3.79-1.87 1.17-.73 2.28-1.57 3.33-2.55 1.06-.98 2.17-2.1 3.33-3.38 1.17-1.28 2.18-2.74 3.04-4.38.86-1.64 1.59-3.35 2.17-5.12.59-1.78 1.03-3.54 1.34-5.29.31-1.75.51-3.4.63-4.96.94-.34 1.42-1 1.42-2l-.16-.92c-.22-.33-.22-.72 0-1.17.33-1.05 1.11-1.86 2.33-2.41.89.55 1.68 1.16 2.37 1.83.7.66 1.35 1.33 1.96 2zm14.16 38.732c-.612 2.22-1.153 3.9-1.625 5.04-.472 1.138-1.18 2.318-2.124 3.54-.722-.112-1.222-.028-1.5.25-.277.277-.582.527-.916.75-.5.11-.86.11-1.082 0-.223-.112-.417-.237-.584-.376-.166-.14-.374-.278-.624-.416-.25-.14-.625-.21-1.125-.21-.11-.443-.236-.86-.374-1.248-.13-.39-.51-.528-1.12-.417.11-.444.14-.82.09-1.124-.05-.31-.12-.59-.21-.84-.08-.25-.15-.5-.2-.75-.05-.25-.03-.57.09-.96-.27 0-.5-.2-.66-.59-.16-.39-.36-.78-.58-1.17.17-1 .34-1.95.5-2.84.17-.89.38-1.72.63-2.5s.46-1.56.63-2.34c.17-.78.09-1.58-.25-2.42.22.17.39.12.5-.13.11-.25.2-.58.25-1 .06-.42.09-.83.09-1.25 0-.42-.03-.76-.08-1.04.56-1.45 1.02-2.93 1.38-4.46.36-1.53.69-3.04 1-4.54.31-1.5.62-2.97.96-4.42.34-1.45.78-2.78 1.34-4 .61-.11 1.29-.04 2.04.21s1.21.57 1.38.96c1.45-1.11 2.72-2.46 3.83-4.04 1.11-1.58 2.25-3.13 3.42-4.63s2.46-2.83 3.88-4c1.42-1.16 3.21-1.86 5.37-2.08 1.11.84 2.35 1.68 3.71 2.54 1.36.86 2.48 1.99 3.37 3.38.44.22.82.46 1.12.71.31.25.69.51 1.13.79v1c.67.61 1.21 1.32 1.63 2.12.42.81.79 1.67 1.12 2.58l1 2.75c.33.92.72 1.79 1.17 2.62-.11.28-.16.52-.16.71 0 .19.04.4.13.62.09.22.16.45.21.67.06.22.06.53 0 .92-.17 2.44-.96 4.42-2.37 5.91-1.42 1.5-3.12 2.73-5.12 3.71-2 .97-4.13 1.79-6.41 2.45-2.28.67-4.33 1.39-6.16 2.17 0 .22.1.33.29.33.19 0 .26.14.21.42 1.33.83 2.39 1.5 3.16 2 .78.5 1.51.91 2.21 1.25.69.33 1.44.62 2.25.87.8.25 1.93.54 3.37.87l3.37.79c.8.2 1.54.36 2.21.5.66.14 1.34.25 2.04.34.69.08 1.68.18 2.95.29.5.5.93 1.1 1.29 1.79s.6 1.39.71 2.08c.11.7.14 1.36.08 2-.05.64-.25 1.15-.58 1.54.06.17.18.24.38.21.19-.03.4-.01.62.04-.33.22-.61.5-.83.83l-.66 1c-.22.33-.47.62-.75.87s-.67.4-1.17.46c-1.72.67-3.88.71-6.49.12-2.61-.58-5.91-1.65-9.91-3.21-2-.78-3.62-1.46-4.87-2.04s-2.33-1.17-3.25-1.75c-.92-.58-1.75-1.21-2.5-1.87l-2.71-2.42zm11.91-28.57c-.61.89-1.29 1.694-2.04 2.416s-1.472 1.458-2.166 2.207c-.7.75-1.32 1.583-1.88 2.5-.56.915-.95 1.984-1.17 3.206 1.94-.23 3.97-.77 6.08-1.63 2.11-.86 4.11-1.68 6-2.46-.22-1.72-.82-3.11-1.79-4.17-.98-1.06-1.99-1.75-3.04-2.08zm-491.34 152.09c-3.11-1.762-5.495-4.25-7.153-7.463-1.66-3.214-2.59-6.27-2.8-9.174.312-2.486.96-4.43 1.945-5.83.985-1.398 2.15-2.54 3.498-3.42 1.348-.88 2.747-1.555 4.198-2.02 1.45-.467 2.85-.856 4.198-1.167l2.34.777c.52.52 1.07.985 1.64 1.4.57.414 1.12.83 1.63 1.244 1.04-.415 1.69-1.037 1.95-1.866.26-.83.55-1.66.86-2.48.31-1.14.67-2.28 1.09-3.42.42-1.14.94-2.28 1.56-3.42-.1-.93-.05-1.76.16-2.49.21-.72.42-1.34.62-1.86-.62-.52-1.06-.8-1.32-.85-.26-.05-.7-.18-1.32-.39-.31 0-.62-.02-.93-.08-.31-.05-.67-.13-1.08-.23-1.55-1.14-2.56-2.1-3.03-2.87-.47-.77-.96-1.58-1.48-2.41-.52-.83-.98-1.55-1.4-2.17-.41-.62-.88-1.19-1.4-1.71l-1.86-1.24.94-1.86c.2-.21.31-.49.31-.86s-.21-.9-.62-1.63c-.32-1.34-.37-2.33-.16-2.95l.31-1.86c1.04-1.35 1.61-2.12 1.71-2.33l1.55-1.55c2.39-.62 4.82-1.32 7.31-2.1 2.49-.77 4.93-1.58 7.31-2.41 2.39-.83 4.82-1.66 7.31-2.48 2.49-.83 4.98-1.55 7.47-2.17.83-.72 1.74-1.16 2.72-1.32.99-.15 1.89-.28 2.72-.39.73 0 1.4-.05 2.02-.15.62-.1 1.09-.36 1.4-.78 1.76-.62 3.47-1.14 5.13-1.55 3.11-.83 7.21-1.81 12.28-2.95 5.08-1.14 10.78-1.97 17.1-2.49l3.27-.15c.63.1 1.25.13 1.87.08.62-.05 1.25-.07 1.87-.07 5.39 0 8.97 1.66 10.73 4.97 1.04.52 1.97 1.17 2.8 1.95.83.77 1.61 1.53 2.34 2.25.52.52.98.96 1.4 1.32.41.37.78.65 1.09.86l1.25 1.24c1.14 2.48 1.35 4.92.62 7.3-.62 1.24-1.29 1.97-2.02 2.18l-2.17.63-2.02 1.09c-1.34-.1-2.35-.15-3.03-.15h-2.25c-3.11 0-6.71.18-10.81.54-4.09.36-8.26.88-12.51 1.55s-8.39 1.5-12.44 2.49c-4.04.98-7.56 2.04-10.57 3.19-.83.62-1.91 1.19-3.26 1.71-.31.1-.77.36-1.4.77.11.83.11 1.63 0 2.41-.1.78-.26 1.53-.46 2.26-.1.52-.18 1.07-.23 1.64-.05.57-.13 1.16-.23 1.79-2.18 2.59-3.21 5.65-3.11 9.18l-.78 1.55c-.41.41-.75 1.01-1.01 1.79s-.28 1.58-.08 2.41l.62 1.86c2.08-.2 4.12-.44 6.14-.7 2.03-.26 4.18-.54 6.46-.85 2.91-.52 5.83-.96 8.79-1.32 2.95-.36 6.03-.54 9.25-.54h6.06l-1.4 1.4 1.71.15-.93 2.49 1.63.7c.37.15.7.34 1.01.54l1.09 1.56c.52.31.99.8 1.4 1.48.42.67.67 1.58.78 2.72l-.46 1.55-7.31 9.33-.93 1.25-1.56-.47c-1.97-.11-3.83.1-5.59.62-.83.2-1.71.44-2.64.7-.93.25-1.87.38-2.8.38-2.49.42-4.56.75-6.22 1.01-1.66.26-3.32.5-4.98.7-2.28.42-4.48.81-6.6 1.17-2.12.36-4.12.91-5.98 1.63-1.14.1-1.81.13-2.02.08-.21-.05-.41-.08-.62-.08-1.03 0-2.07.16-3.11.47-1.03.31-2.02.62-2.95.93-.62.52-1.03 1.07-1.24 1.64-.21.57-.41 1.17-.62 1.79-.21.72-.49 1.42-.86 2.1-.36.67-.8 1.37-1.32 2.1l.16 2.8c-.93.21-1.4.33-1.4.39-.16.9-.28 1.68-.54 2.41-.26.72-.49 1.4-.7 2.02-.2.41-.36.77-.46 1.09-.11.31-.16.62-.16.93 1.04 1.86 1.3 3.99.78 6.37-.41 1.97-1.19 3.71-2.33 5.21-1.14 1.5-2.49 2.67-4.04 3.5-1.66.21-2.88.15-3.65-.16s-1.58-.62-2.41-.93c-.51-.21-1.03-.39-1.55-.55-.52-.15-1.03-.28-1.55-.39l-1.86-1.55c-.31-.62-.67-1.22-1.09-1.79-.41-.57-.83-1.17-1.24-1.79l-1.55-2.17c-.52-.73-.99-1.56-1.4-2.49-.73-3.63-.86-6.66-.39-9.09.47-2.43 1.11-4.84 1.94-7.23.21-.83.42-1.6.62-2.33.21-.72.42-1.5.62-2.33zm165.43 18.502c-.623 1.762-1.53 3.55-2.72 5.364-1.194 1.814-2.593 3.42-4.2 4.82-1.606 1.4-3.394 2.565-5.363 3.498-1.97.933-4.043 1.45-6.22 1.555-1.347-.31-2.254-.65-2.72-1.01-.467-.37-.96-.7-1.478-1.01-.31-.21-.596-.39-.855-.55-.26-.16-.5-.29-.7-.39l-1.87-.78.62-2.02c.2-.83.15-1.48-.16-1.95s-.94-1.12-1.87-1.95l-.93-.94c-.31-.31-.57-.62-.78-.94l-2.64-2.96 4.2-1.09c2.59-.73 4.32-1.66 5.2-2.8.88-1.14 1.22-3.06 1.01-5.75-2.08-.42-3.81-.47-5.21-.16-1.4.31-2.83.67-4.28 1.09-1.87.52-3.76.96-5.68 1.32-1.92.36-4.02.54-6.3.54-.83 0-1.61-.03-2.33-.08-.73-.05-1.5-.13-2.33-.24l-1.56-.31c-.21-1.14-.42-1.79-.62-1.95-.21-.16-.42-.34-.62-.55-.52-.52-1.06-1.22-1.64-2.1-.57-.88-.7-1.99-.39-3.34-.52-.93-.83-1.87-.94-2.8-.62 1.24-1.09 2.54-1.4 3.89l-.62 1.55-1.55.31c-.21.1-.37.34-.47.7-.1.36-.16.65-.16.85l-.78 2.64c-.21.21-.42.39-.62.54-.21.15-.42.34-.62.54-.21.93-.47 1.87-.78 2.8-.31.93-.62 1.81-.93 2.64-.52 1.34-.96 2.67-1.32 3.96-.37 1.3-.5 2.57-.39 3.81l-.63 1.71c-.52.62-1.09 1.12-1.71 1.48-.62.36-1.24.7-1.86 1.01-.21.21-.49.39-.86.54-.36.15-.65.28-.86.39l-.47 1.71-1.87.31c-1.14.2-1.95.36-2.41.46-.47.1-1.01.16-1.63.16l-1.56-.16c-1.14-.94-2.02-1.69-2.64-2.26-.62-.57-1.35-1.12-2.18-1.64-.93-1.25-1.45-2.18-1.55-2.8-.11-.62-.21-1.19-.31-1.71-.21-.62-.34-1.14-.39-1.56-.06-.42-.18-.73-.39-.94l-2.02-1.87 1.71-1.4.15-2.64c2.07-5.29 4.27-10.37 6.6-15.24 2.33-4.87 4.74-9.85 7.23-14.93.83-1.66 1.63-3.32 2.41-4.98.78-1.66 1.58-3.32 2.41-4.98-.1-.31-.16-.67-.16-1.09 0-.41.1-.88.31-1.4 1.14-1.76 2.07-3.34 2.8-4.74.72-1.4 1.45-2.83 2.17-4.28.83-1.76 1.68-3.47 2.56-5.13.88-1.66 1.99-3.37 3.34-5.13l2.49-1.09c.31-.1.67-.23 1.09-.39.41-.16.88-.24 1.4-.24l2.33.31c2.9-1.34 5.44-3.24 7.62-5.67 2.17-2.43 4.4-5.36 6.68-8.78l1.55-2.18 2.02 1.24c.52.31 1.24.6 2.18.86s1.92.54 2.95.85c1.86.41 3.62.88 5.28 1.4 1.66.51 3.01 1.29 4.04 2.33.62 1.66.98 2.9 1.09 3.73.11.83.26 1.66.47 2.49.31 1.76.59 3.52.85 5.28.26 1.76.44 3.73.55 5.91.52 1.77.96 3.5 1.32 5.21.36 1.71.7 3.45 1.01 5.21.52 2.49 1.04 4.9 1.56 7.23.52 2.34 1.19 4.54 2.02 6.61.83 0 1.35.05 1.55.16.52-.21 1.06-.36 1.63-.47.57-.1 1.21-.21 1.94-.31l1.71-.154.62 1.56c.1.52.62 1.03 1.55 1.55 1.34.103 2.33.39 2.95.86.62.47 1.19.96 1.71 1.48.41.41.83.72 1.24.93l2.33.93-1.25 2.33c-1.04 1.862-2.52 3.65-4.43 5.36-1.92 1.71-4.07 3.13-6.46 4.27.1.62.18 1.21.23 1.78.05.57.18 1.163.385 1.79.31 1.76.57 3.58.78 5.44.21 1.86.21 3.78 0 5.75l-.31.62zm-44.934-26.898c3.11-.208 5.94-.44 8.48-.7 2.54-.26 5.37-.7 8.48-1.32-.72-3.11-1.5-6.35-2.33-9.72-.83-3.368-1.71-6.71-2.64-10.027l-.93 1.554c-2.07 2.18-4.07 4.62-5.98 7.31-1.91 2.7-3.55 5.24-4.89 7.62l-1.86 2.8c-.62.93-1.19 1.87-1.71 2.8.63-.1 1.22-.15 1.79-.15.57 0 1.12-.05 1.64-.15zm162.79 37.16c-1.03.518-1.99.984-2.87 1.4-.88.413-1.89.62-3.03.62-4.04-3.005-6.14-8.24-6.29-15.703-.15-7.46 1.43-16.94 4.74-28.45.52-.31.78-.93.78-1.86l-1.4-1.55c-.41 0-.8.05-1.16.16-.36.11-.64.47-.85 1.09-2.69 1.97-5.65 4.02-8.86 6.14-3.21 2.13-6.55 4.1-10.03 5.91-3.47 1.82-6.99 3.29-10.57 4.43-3.57 1.14-7.07 1.71-10.49 1.71-8.7 0-15.23-4.4-19.59-13.21l-1.24-2.33-1.24 2.02c-.31.42-.78 1.27-1.4 2.57-.62 1.3-1.24 2.77-1.86 4.43-.62 1.66-1.17 3.35-1.63 5.06-.46 1.71-.65 3.19-.54 4.43-.93.93-1.92 2.02-2.95 3.27-1.04 1.25-1.81 2.65-2.33 4.2-.2.83-.1 1.61.31 2.34-.2.93-.67 1.66-1.4 2.18-.41.52-.85 1.01-1.32 1.48-.46.46-.85.96-1.16 1.48-.21.52-.34 1.04-.39 1.56-.05.52-.13 1.03-.23 1.55 0 .73-.1 1.4-.31 2.02-1.76 3.63-3.16 5.99-4.2 7.08-1.03 1.09-2.43 1.63-4.19 1.63-.83 0-2.17-.16-4.04-.47-1.35-1.45-2.56-3.45-3.65-5.99-1.08-2.54-1.91-5.26-2.48-8.16-.57-2.9-.83-5.83-.78-8.78.06-2.95.55-5.52 1.48-7.7 0-.1.42-1.14 1.25-3.11.83-1.97 1.89-4.51 3.19-7.62 1.3-3.11 2.77-6.55 4.43-10.34 1.66-3.78 3.32-7.46 4.98-11.04 1.66-3.57 3.24-6.86 4.75-9.87 1.5-3 2.77-5.28 3.81-6.84.83-1.24 1.58-2.41 2.25-3.5.68-1.08 1.32-2.15 1.95-3.18 1.86-3.21 3.65-5.88 5.36-8.01 1.71-2.12 4.23-3.81 7.54-5.05 2.28.94 3.94 2.02 4.98 3.27l.31 1.71c.41 1.04 1.04 1.56 1.86 1.56 1.14.31 2.1.6 2.88.85.78.26 1.63.49 2.57.7.73.83 1.4 1.82 2.02 2.96.83 1.25 1.64 2.46 2.41 3.66.78 1.19 1.4 2.39 1.87 3.58.47 1.19.73 2.41.78 3.66.06 1.25-.18 2.54-.7 3.89l.16 1.56c.52.94.62 2.23.31 3.89-.1.73-.15 1.48-.15 2.26 0 .78.1 1.63.31 2.57 1.87 1.45 3.53 2.18 4.98 2.18 1.66 0 3.18-.39 4.58-1.17 1.4-.78 2.72-1.58 3.96-2.41.83-.62 1.66-1.17 2.49-1.63.83-.46 1.66-.75 2.49-.85 1.87-1.76 3.55-3.32 5.05-4.67 1.5-1.34 3.08-2.69 4.74-4.04 3.11-2.49 6.12-5.18 9.02-8.08 2.91-2.9 5.24-6.53 7-10.88 1.04-.62 2.13-.93 3.27-.93 1.14 0 2.33.26 3.58.78 1.24.52 2.44 1.04 3.58 1.56.31.21.6.36.86.47.26.11.49.21.7.31 0 1.04.41 1.92 1.24 2.64.41.31.67.52.77.62.1.11.26.21.47.31 1.56.83 2.54 1.66 2.96 2.49.73 2.38 2.02 4.2 3.89 5.44-.21 1.04-.18 2 .08 2.88.26.88.6 1.79 1.01 2.72l.31.93c.1.31.26.67.47 1.09l-2.96-.31.47 2.96c.21 1.45.08 3.06-.39 4.82-.46 1.76-1.01 3.16-1.63 4.2.11 2.69.18 4.79.24 6.3.05 1.5-.03 2.9-.23 4.2-.21 1.3-.49 2.51-.85 3.65-.36 1.14-.85 2.38-1.48 3.73.42 6.64-.33 12.67-2.25 18.11-1.91 5.45-3.91 10.55-5.98 15.32-.2.52-.44 1.04-.7 1.56-.26.52-.49 1.03-.7 1.55-.93.31-1.76.65-2.48 1.01l-2.34 1.16zm55.04-8.086c.52 3.11.34 5.546-.54 7.308-.88 1.762-2.12 3.084-3.73 3.965-1.6.88-3.44 1.38-5.52 1.48-2.07.11-4.04 0-5.91-.31-1.03-1.45-1.97-3.26-2.8-5.44-.83-2.17-1.6-4.43-2.33-6.76-.72-2.33-1.37-4.64-1.94-6.92-.57-2.28-1.06-4.3-1.47-6.06.52-1.24.86-2.67 1.01-4.27.16-1.6.26-3.24.31-4.89l.16-5.05c.06-1.71.18-3.34.39-4.89.73-4.35 1.79-8.5 3.19-12.44 1.4-3.94 2.52-8.03 3.35-12.28.21-.93.13-1.81-.23-2.64-.36-.83-.44-1.6-.23-2.33.11-.41.42-.7.94-.85.52-.15.83-.49.93-1.01.31-1.14.39-2.07.24-2.8-.15-.72.03-1.61.55-2.64.52-.83 1.16-2.05 1.94-3.66.78-1.61 1.06-3.29.86-5.05.93-.62 1.82-1.35 2.64-2.18.83-.83 1.69-1.58 2.57-2.25.88-.67 1.87-1.27 2.96-1.78 1.09-.52 2.41-.78 3.97-.78.83 1.03 1.38 2.17 1.64 3.42l.78 3.73c.26 1.24.65 2.41 1.17 3.5.52 1.09 1.4 1.94 2.64 2.56v3.11c0 1.25.06 2.47.16 3.66.11 1.19.34 2.28.7 3.27.37.99.96 1.63 1.79 1.95-1.86 4.97-3.6 9.9-5.21 14.77-1.6 4.87-2.92 9.77-3.96 14.69-1.03 4.93-1.68 9.88-1.94 14.85-.26 4.98.08 10 1.01 15.08zm59.08 9.174c-2.9.933-6.06 1.866-9.48 2.798-3.42.933-6.84 1.4-10.26 1.4-5.18 0-9.27-1.296-12.28-3.887-.51-1.14-.98-1.917-1.4-2.33-.31-.416-.59-.857-.85-1.323-.26-.466-.44-1.114-.54-1.944-1.24-1.45-2.23-3.135-2.95-5.053-.72-1.917-1.22-3.887-1.48-5.908-.25-2.02-.31-4.068-.15-6.14.16-2.074.5-4.044 1.01-5.91.21-.414.34-.83.39-1.243.05-.416.13-.882.24-1.4.42-1.66.86-3.266 1.32-4.82.47-1.555 1.12-2.903 1.95-4.043-.41-.94-.41-1.97 0-3.11.42-1.14.88-2.18 1.4-3.11 1.45-3.94 2.67-7.28 3.66-10.03.99-2.75 2-5.47 3.04-8.17 1.76-4.67 3.42-9.28 4.97-13.84 1.56-4.57 2.96-9.49 4.2-14.78.83-.52 1.45-.88 1.87-1.09.62-.21 1.14-.37 1.55-.47 1.87.93 4.05 1.84 6.53 2.72 2.49.88 4.56 1.32 6.22 1.32.83.52 1.35.9 1.56 1.16.21.26.42.49.62.7 1.15 1.34 2.13 2.72 2.96 4.12.83 1.4 1.09 3.24.78 5.52-.62.93-1.09 1.4-1.4 1.4-.52 2.07-1.06 3.83-1.63 5.28-.57 1.45-1.17 2.9-1.79 4.35-.72 1.55-1.4 3.11-2.02 4.66-.62 1.55-1.14 3.47-1.55 5.75-.41.52-.7.98-.85 1.4-.15.41-.33.88-.54 1.4-.2.52-.44 1.06-.7 1.63-.26.57-.64 1.06-1.16 1.47-.31 2.69-.8 4.87-1.48 6.53-.67 1.66-1.37 3.32-2.1 4.97-1.24 3.01-2.36 6.01-3.34 9.02-.99 3-1.58 6.43-1.79 10.26.52-.21 1.01-.31 1.48-.31h1.32c.93 0 2.02.15 3.27.47 3.11-1.66 6.51-2.64 10.19-2.96 3.68-.31 7.33-.52 10.96-.63h4.36c1.45 0 2.8-.1 4.04-.31.93.52 1.53.8 1.79.85.26.05.65.08 1.17.08.73 0 1.35.05 1.87.15 1.25 1.14 2.44 1.97 3.58 2.48 1.14.52 2.33.99 3.58 1.4 1.14.41 2.25.86 3.34 1.32 1.09.47 2.15 1.12 3.19 1.95l1.09 6.68c.73.93 1.04 1.56.94 1.87 0 .83-.21 1.45-.63 1.87l.31 1.71c-1.55.31-2.61.67-3.18 1.09-.57.41-1.11.88-1.63 1.39-.83.1-1.43.15-1.79.15h-1.01c-1.45 0-3.21.26-5.29.78-2.8-.94-5.7-1.4-8.71-1.4-1.14 0-2.33.05-3.57.15l-3.73.31c-1.24.2-2.51.36-3.81.46-1.29.1-2.61.16-3.96.16l-3.57.93zm88.78-39.026c-.72.622-1.34 1.374-1.86 2.255-.52.88-1.03 1.79-1.55 2.72-.52 1.14-1.09 2.23-1.71 3.27-.62 1.04-1.4 1.97-2.33 2.8-.51 1.56-1.03 2.78-1.55 3.66-.51.88-1.34 1.89-2.48 3.03-1.04 4.15-3.47 8.66-7.31 13.53-.1.94-.39 1.84-.85 2.72-.46.89-.96 1.74-1.47 2.57-.21.31-.41.65-.62 1.01-.21.37-.36.65-.47.86l-.31 1.56c-.52.83-1.09 1.56-1.71 2.18l-1.71 1.71c-.21.31-.57.73-1.09 1.24l-2.33.94c-7.56-1.04-12.18-5.08-13.83-12.13l.15-1.55c.21-.51.39-1.06.55-1.63.16-.57.34-1.17.54-1.79.42-1.45.91-2.9 1.48-4.35.57-1.45 1.43-2.74 2.57-3.88.21-.72.68-1.89 1.4-3.49.73-1.6 1.97-4.01 3.73-7.23 1.46-2.49 2.6-4.45 3.42-5.91.83-1.45 1.51-2.59 2.03-3.42-1.04-1.66-2.28-3.16-3.73-4.51-1.35-2.59-2.51-5.08-3.5-7.46-.99-2.38-1.74-4.51-2.26-6.37-.1-1.35-.26-2.49-.46-3.42-.21-.94-.41-1.92-.62-2.96-.31-1.14-.57-2.28-.78-3.42-.21-1.14-.31-2.33-.31-3.58-.52-.72-.83-1.45-.94-2.17l.32-1.55c.31-.73.36-1.68.16-2.88-.21-1.19-.47-2.41-.78-3.65-.21-1.03-.44-2.17-.7-3.42-.26-1.24-.34-2.49-.23-3.73.1-1.24.44-2.41 1.01-3.5.57-1.09 1.53-2.04 2.87-2.87l2.65-.15c.93.52 1.84 1.01 2.72 1.48.88.47 1.73.96 2.56 1.48 1.14.52 2.23 1.04 3.27 1.56s2.13 1.19 3.27 2.02l1.09 2.18 2.02 1.71v1.71c.11.42.16.99.16 1.71 0 1.35.21 2.18.62 2.49l.62 1.87c0 1.45.16 2.82.47 4.12.31 1.3.62 2.51.93 3.65.31 1.14.62 2.33.93 3.58.31 1.24.36 2.59.16 4.04.62-.31 1.14-.67 1.55-1.09.21-.21.42-.36.62-.47.21-.1.42-.26.63-.46l9.18-12.43-.31-1.55 3.27-3.11c.83-.83 1.64-1.6 2.41-2.33.78-.72 1.43-1.5 1.95-2.33l1.71-1.24c3.32-5.18 8.04-8.39 14.15-9.64l2.18-.31.62 2.02c.41 1.14 1.27 2.18 2.56 3.11 1.3.93 2.67 1.82 4.12 2.64l1.4.93c.52 1.04.78 1.82.78 2.33 0 .52-.05.99-.15 1.4l.62 1.56c-.83 2.49-1.84 4.3-3.03 5.44-1.19 1.14-2.36 2.18-3.5 3.11-.93.83-1.79 1.58-2.56 2.25-.78.68-1.37 1.53-1.79 2.57l-1.09 1.25c-2.17 1.24-3.57 2.9-4.19 4.98l-.47 1.87h-1.87c-.1 0-.34.18-.7.54-.36.36-.91 1.27-1.63 2.72-.73 1.03-1.25 1.71-1.56 2.02l-.78.78c-.1.42-.23.81-.39 1.17-.15.36-.34.8-.54 1.32-1.35 1.35-2.18 2.36-2.49 3.03-.31.68-.67 1.43-1.09 2.26-.41.83-.8 1.64-1.16 2.41-.36.78-.96 1.58-1.79 2.41l-.78 2.33z" fill="#1F7A8C"/>
  </g>
</svg>
