<svg xmlns="http://www.w3.org/2000/svg" viewBox="0 0 119 76">
  <path fill="#29B6F6" fill-rule="evenodd" d="M50.493 54.047c.353.133.692.362 1.016.687l5.91 10.56c-2.59 3.398-5.84 5.96-9.74 7.69-3.9 1.73-10.97 2.593-16.3 2.593-2.75 0-8.52-.383-13.62-2.593-3.97-1.718-7.43-4.924-9.37-7.442-4.43-5.755-5.38-10.12-6.82-14.154-1.44-4.034-1.55-9.305-1.55-14.033 0-4.817.82-12.045 2.47-16.08 1.65-4.033 3.95-7.512 6.91-10.438 2.96-2.925 6.5-5.2 10.62-6.826C24.16 2.39 28.71.96 33.69.96c2.413 0 7.14.214 9.275.642 2.134.43 4.128 1.02 5.983 1.773a28.154 28.154 0 0 1 5.122 2.704 24.755 24.755 0 0 1 4.15 3.48l-5.033 10.47c-.324.41-.707.79-1.148 1.13-.45.34-1.06.51-1.86.51-.53 0-1.03-.12-1.5-.36s-.98-.53-1.5-.87c-.53-.34-1.11-.71-1.75-1.11-.63-.4-1.39-.77-2.25-1.11-.87-.34-1.89-.63-3.05-.87-1.17-.23-2.53-.35-4.09-.35-2.71 0-5.18.48-7.42 1.44s-4.16 2.33-5.76 4.12c-1.61 1.79-2.86 3.95-3.75 6.49-.9 2.54-1.35 5.392-1.35 8.554 0 3.31.45 6.864 1.34 9.435.894 2.57 2.12 4.733 3.662 6.492 1.544 1.75 3.347 3.09 5.41 4.01 2.06.91 4.266 1.37 6.62 1.37 1.355 0 2.59-.068 3.71-.2 1.12-.13 2.156-.36 3.113-.688.955-.327 1.87-.75 2.736-1.266.87-.518 1.746-1.16 2.63-1.93.354-.295.737-.54 1.15-.73.41-.193.84-.29 1.28-.29.353 0 .706.067 1.06.2l.023.041ZM117.25 4.32v10.13c0 .71-.116 1.404-.347 2.085a7.95 7.95 0 0 1-.956 1.922L88.097 58.39h29.965v15.2h-51.46v-9.886c0-.627.107-1.247.325-1.86a6.538 6.538 0 0 1 .895-1.696l27.933-40.056H68.88V4.32h48.37Z"/>
</svg>
