<svg width="224" height="76" viewBox="0 0 224 76" xmlns="http://www.w3.org/2000/svg"><title>Chris Zamierowski - Logo</title><desc>Developer, designer, thinker, carnivore</desc><g fill="none" fill-rule="evenodd"><g fill="#0288D1"><path d="M118.37 71.326c-5.093.92-10.21 1.616-15.35 2.085-5.14.47-12.76.704-18.02.704-2.714 0-8.124-.104-11.508-.703-2.632-.465-3.658-1.334-3.688-2.016-.07-1.56 2.25-2.744 3.836-3.838 1.587-1.093 5.415-2.522 8.944-3.804 3.596-1.306 9.805-3.266 14.443-4.36 4.638-1.093 9.51-2.036 14.613-2.83 5.103-.792 10.296-1.41 15.577-1.85 5.28-.44 10.836-.828 15.747-.828 2.382 0 6.888.058 8.675.174 1.786.117 3.313.277 4.58.48 1.27.205 2.282.45 3.04.734.756.285 1.256.6 1.5.944l-12.79 2.84c-.627.112-1.286.214-1.976.306s-1.426.138-2.21.138c-.524 0-.93-.032-1.218-.096-.29-.064-.568-.142-.837-.234-.27-.092-.568-.193-.895-.3-.327-.11-.792-.21-1.396-.3-.605-.093-1.392-.17-2.363-.236-.97-.064-2.227-.096-3.767-.096-2.673 0-5.472.13-8.398.39-2.925.26-5.846.634-8.764 1.118-2.918.485-5.77 1.072-8.552 1.76-2.783.69-5.355 1.463-7.715 2.32-2.47.897-4.68 1.86-5.713 2.558-1.033.697-1.443 1.284-1.23 1.76.213.478.995.84 2.345 1.088 1.35.25 3.188.373 5.512.373 1.337 0 2.607-.018 3.81-.054 1.204-.035 2.4-.097 3.586-.185 1.187-.088 2.402-.203 3.645-.343 1.243-.14 2.587-.314 4.033-.523.57-.08 1.128-.147 1.68-.2.55-.05 1.042-.077 1.478-.077.348 0 .647.018.897.054.25.036.412.098.49.186l-2.042 2.863zM213.474 58.107c-.737.185-1.53.36-2.38.52l-57.297 10.828h29.58l-11.347 4.12h-50.796l7.38-2.68c.468-.17 1.038-.338 1.71-.504.672-.165 1.388-.32 2.15-.46l57.47-10.858h-26.526l11.773-4.276h47.744l-7.563 2.746c-.528.192-1.16.38-1.896.565z"/></g><g fill="#FFF"><path d="M103.493 54.047c.353.133.692.362 1.016.687l5.916 10.56c-2.59 3.398-5.836 5.96-9.737 7.69-3.9 1.73-10.968 2.593-16.297 2.593-2.75 0-8.52-.383-13.62-2.593-3.964-1.718-7.428-4.924-9.363-7.442-4.423-5.755-5.374-10.12-6.817-14.154-1.442-4.034-1.55-9.305-1.55-14.033 0-4.817.824-12.045 2.473-16.08 1.648-4.033 3.95-7.512 6.91-10.438 2.958-2.925 6.498-5.2 10.62-6.826C77.165 2.387 81.715.96 86.69.96c2.413 0 7.14.214 9.275.642 2.134.43 4.128 1.02 5.983 1.773 1.854.754 3.562 1.655 5.122 2.704 1.56 1.05 2.944 2.21 4.15 3.48l-5.033 10.475c-.324.414-.707.79-1.148 1.13-.443.34-1.06.51-1.856.51-.53 0-1.03-.118-1.5-.354-.472-.237-.973-.525-1.502-.865-.53-.34-1.112-.71-1.745-1.108-.632-.4-1.383-.768-2.252-1.108-.868-.34-1.884-.628-3.046-.864-1.164-.237-2.526-.355-4.086-.355-2.708 0-5.18.48-7.418 1.44-2.237.96-4.158 2.335-5.762 4.123-1.605 1.79-2.856 3.953-3.753 6.495-.897 2.54-1.346 5.393-1.346 8.555 0 3.31.45 6.865 1.347 9.436.898 2.57 2.12 4.735 3.666 6.494 1.545 1.758 3.348 3.095 5.41 4.01 2.06.917 4.267 1.375 6.622 1.375 1.354 0 2.59-.066 3.71-.2 1.118-.132 2.155-.36 3.112-.686.957-.326 1.87-.747 2.738-1.265.868-.517 1.744-1.16 2.627-1.928.353-.295.736-.54 1.148-.73.412-.193.84-.29 1.28-.29.354 0 .707.067 1.06.2zM170.25 4.32v10.13c0 .71-.116 1.404-.347 2.085-.23.682-.55 1.322-.956 1.922l-27.85 39.933h29.965v15.2h-51.46v-9.886c0-.627.107-1.247.325-1.86.217-.613.515-1.178.895-1.696l27.933-40.056H121.88V4.32h48.37z"/></g></g></svg>