<?xml version="1.0" encoding="UTF-8" standalone="no"?>
<svg width="618px" height="618px" viewBox="0 0 618 618" version="1.1" xmlns="http://www.w3.org/2000/svg" xmlns:xlink="http://www.w3.org/1999/xlink" xmlns:sketch="http://www.bohemiancoding.com/sketch/ns">
    <!-- Generator: Sketch 3.4.4 (17249) - http://www.bohemiancoding.com/sketch -->
    <title>no</title>
    <desc>Created with Sketch.</desc>
    <defs></defs>
    <g id="Steak" stroke="none" stroke-width="1" fill="none" fill-rule="evenodd" sketch:type="MSPage">
        <g id="steak" sketch:type="MSLayerGroup" transform="translate(135.000000, 131.000000)">
            <g id="side" transform="translate(0.000000, 1.111959)" sketch:type="MSShapeGroup">
                <path d="M19.7616082,25.5424867 C9.49052915,33.849604 38.7057044,150.229609 47.380896,184.75247 C51.2780095,200.261005 72.010619,247.437003 82.5643442,282.945859 C93.1180693,318.454715 103.430459,348.355996 113.355837,368.529804 C116.367005,374.650147 139.62924,398.626773 139.62924,398.626773 L162.776063,420.82394 C162.776063,420.82394 187.651045,436.777384 195.017879,435.306 C214.405519,431.433688 211.989951,400.689751 219.532361,385.878106 C223.839169,377.420476 235.457764,357.145634 240.261503,329.135606 C243.870438,308.09234 246.951889,287.804931 257.368373,271.231194 C260.855843,265.682257 309.261261,217.782932 324.330399,192.219103 C339.399536,166.655273 347.014177,133.830381 347.014177,133.830381 C347.014177,133.830381 362.253132,42.7529202 347.014188,31.4801755 C345.197089,30.1360082 329.109364,8.73713323 329.109364,8.73713323 C329.109364,8.73713323 240.261503,29.8643598 240.261503,29.8643598 C240.261503,29.8643598 226.579246,41.0360757 208.872095,41.0360757 C191.164944,41.0360756 176.652128,5.50550225 176.652128,5.50550155 C176.652128,5.50550086 30.0326872,17.2353694 19.7616082,25.5424867 Z" fill="#D05252"></path>
                <path d="M321.661329,196.468081 C322.637107,194.995297 323.530696,193.575748 324.330399,192.219103 C339.399536,166.655273 347.014177,133.830381 347.014177,133.830381 C347.014177,133.830381 362.253132,42.7529202 347.014188,31.4801755 C345.197089,30.1360082 329.109364,8.73713323 329.109364,8.73713323 C329.109364,8.73713323 325.829289,9.51710559 320.529609,10.7773221 L290.462375,161.809622 L321.661329,196.468081 Z" id="top" fill="#F1C6C6"></path>
                <path d="M242.667952,315.292988 C245.595816,299.285475 249.259607,284.133106 257.368373,271.231194 C259.159313,268.381617 272.795963,254.363444 287.680429,237.937022 L256.520416,204.954512 L214.227226,279.58392 L242.667952,315.292986 Z" fill="#F1C6C6"></path>
                <path d="M219.083311,386.803281 C219.229037,386.488512 219.378631,386.18 219.532361,385.878106 C222.508676,380.033275 228.976956,368.544774 234.274812,352.759846 L205.071529,317.231994 L198.527086,357.25167 L219.083311,386.803281 Z" id="bottom" fill="#F1C6C6"></path>
                <path d="M104.3121,347.832068 C107.358958,355.534359 110.374853,362.470809 113.355837,368.529804 C116.367005,374.650147 139.62924,398.626773 139.62924,398.626773 L162.776063,420.82394 C162.776063,420.82394 187.651045,436.777384 195.017879,435.306 C195.932571,435.123307 196.798733,434.880802 197.619699,434.582979 L170.823003,409.272687 L104.3121,347.832068 Z M2.50689121,3.30330093 C-7.76418783,11.6104182 21.4509874,127.990423 30.126179,162.513284 C34.0232925,178.021819 54.7559021,225.197817 65.3096272,260.706673 C75.8633523,296.21553 86.1757417,326.11681 96.1011203,346.290618 C106.026499,366.464426 158.375522,416.939125 177.763162,413.066814 C197.150802,409.194502 194.735234,378.450566 202.277644,363.63892 C206.584452,355.18129 218.203047,334.906448 223.006786,306.89642 C226.615721,285.853154 229.697172,265.565745 240.113656,248.992009 C243.601126,243.443071 292.006544,195.543746 307.075682,169.979917 C322.144819,144.416088 329.75946,111.591196 329.75946,111.591196 C329.75946,111.591196 344.998415,20.5137345 329.759471,9.24098978 C321.62132,3.22093389 223.006786,7.62517403 223.006786,7.62517403 C223.006786,7.62517403 216.769104,34.7096355 199.061953,34.7096355 C181.354802,34.7096355 177.763162,7.62517472 177.763162,7.62517403 C177.763162,7.62517333 12.7779703,-5.00381634 2.50689121,3.30330093 Z" id="left" fill="#F1C6C6"></path>
            </g>
            <g id="top" sketch:type="MSShapeGroup">
                <path d="M2.50689121,4.41526022 C-7.76418783,12.7223775 21.4509874,129.102383 30.126179,163.625244 C34.0232925,179.133778 54.7559021,226.309777 65.3096272,261.818633 C75.8633523,297.327489 86.1757417,327.228769 96.1011203,347.402577 C106.026499,367.576385 158.375522,418.051084 177.763162,414.178773 C197.150802,410.306462 194.735234,379.562525 202.277644,364.75088 C206.584452,356.29325 218.203047,336.018408 223.006786,308.008379 C226.615721,286.965114 229.697172,266.677704 240.113656,250.103968 C243.601126,244.55503 292.006544,196.655706 307.075682,171.091876 C322.144819,145.528047 329.75946,112.703155 329.75946,112.703155 C329.75946,112.703155 344.998415,21.6256938 329.759471,10.3529491 C321.62132,4.33289318 223.006786,8.73713331 223.006786,8.73713331 C223.006786,8.73713331 216.769104,35.8215948 199.061953,35.8215948 C181.354802,35.8215948 177.763162,8.73713401 177.763162,8.73713331 C177.763162,8.73713262 12.7779703,-3.89185706 2.50689121,4.41526022 Z" id="meat" fill="#D32F2F"></path>
                <g id="marbling" transform="translate(60.060909, 52.262087)" fill="#FEFEFE" opacity="0.652810168">
                    <path d="M37.3860616,0.786189965 C57.1924069,29.3632754 32.7343767,21.1519011 37.3860616,31.3867883 C38.545254,33.9373058 40.3816693,36.1949742 42.4172379,38.1215261 C42.8193213,38.5020756 43.7760168,38.1589659 44.0131253,37.6589337 C45.6960212,34.1099153 45.2427562,29.4249133 47.9093517,26.5393408 C50.1780443,24.0843464 54.6455298,11.7537017 57.7281904,10.4571948 C58.2118379,10.253782 65.7203174,18.3388502 67.390484,19.9110216 C69.5328022,21.9276416 76.5324206,28.7246599 80.7489746,28.9630651 C89.8275304,29.4763694 87.8263547,32.8668904 96.8904838,32.1425732 C99.8056264,31.9096232 99.185929,29.7394799 93.5508611,24.9148378 C89.622355,21.5513226 85.5349264,22.3013137 80.7489743,19.911021 C74.4362183,16.7581823 72.4279473,12.4464514 67.3904838,7.67946883 C66.2318423,6.58303932 64.9904152,5.45466324 63.4942574,4.89957061 C58.4294903,3.02048084 53.0187535,2.20612088 47.9093517,0.451733461 C47.0320638,0.150503904 37.3860616,0.786189965 37.3860616,0.786189965 Z" id="Path-11"></path>
                    <path d="M102.152129,67.9858858 C101.644221,68.4207475 96.2150219,75.2136212 95.4728835,74.1016619 C95.1817929,73.6655156 93.1903247,77.6487155 94.9162798,77.9935194 C98.3681898,78.6831273 108.063869,68.0488688 115.362771,68.0488688 C122.661673,68.0488688 113.709377,81.461182 111.907915,82.3892344 C108.287712,84.2542398 110.513643,94.449802 107.633372,97.3268437 C106.58383,98.375209 111.161074,94.8484684 111.907915,93.4132683 C115.362771,86.7740895 111.242805,81.0621843 115.982428,79.1684608 C119.604083,77.7214233 122.377182,69.9697777 125.770826,68.0488688 C127.966365,66.8061253 133.618834,68.6938256 133.793749,68.0488679 C134.188443,66.593524 135.616081,62.98033 136.020164,62.4478073 C137.869612,60.0105001 139.764336,57.5424319 141.029598,54.7574795 C141.48963,53.7449092 141.457755,52.4480256 141.029598,51.4216017 C139.286457,47.2427556 129.959955,36.8211994 125.770826,38.9250903 C124.592303,39.5169757 122.818911,54.5749252 122.661673,57.5590957 C122.617413,58.399092 118.183826,60.3570068 115.362772,61.4922173 C115.362772,61.4922173 103.624088,66.7256209 102.152129,67.9858858 Z" id="Path-12"></path>
                    <path d="M52.0067684,130.099237 C55.1921485,130.099237 59.2163906,134.690142 60.4861711,142.731398 C60.7403744,144.341215 61.1403669,148.44277 60.4861711,147.932876 C58.8946634,146.692422 58.070735,142.050558 56.6727316,139.759125 C54.8058632,136.699186 50.6120884,149.517968 50.5011014,150.162081 C50.0300872,152.895612 51.2923623,156.376141 50.7944429,159.078901 C50.4411488,160.996619 49.2729246,160.978048 48.447711,161.308106 C47.8804527,161.53499 42.1340398,162.242529 43.754247,154.620491 C44.2470363,152.302233 45.4355579,151.44172 46.100979,149.419013 C47.8362297,144.144301 48.8183975,137.649775 51.0992431,133.785552 L52.0067684,130.099237 Z" id="Path-13"></path>
                    <path d="M205.009714,27.2430025 C201.009124,27.2430025 202.177149,49.809412 201.009124,52.591578 C199.63832,55.8567536 196.777611,44.9157996 196.104053,48.391947 C195.494073,51.5399771 190.687639,63.8546836 191.651223,66.7609932 C192.451212,69.1738763 207.236129,45.6337667 217.244126,62.3739663 C227.252122,79.1141659 228.111907,79.0349849 228.387072,77.880586 C232.006434,62.6963109 213.91904,57.2044903 207.236129,45.6337667 C204.351148,40.6387409 205.009714,27.2430025 205.009714,27.2430025 Z" id="Path-16"></path>
                    <path d="M5.11457055,63.8299734 C3.75495961,65.4232026 2.06809131,66.7868213 1.03573771,68.6096609 C-1.46631456,73.0275659 6.74608663,72.7755395 8.69921034,69.8429039 C8.91885673,69.5131026 8.35306753,68.8462835 8.69921034,68.6537883 C10.3411099,67.7407034 12.1789621,67.0856261 14.0448479,66.8701148 C17.3884357,66.4839277 20.7952135,66.514304 24.1421634,66.8701148 C25.9378411,67.0610115 24.6003496,71.1619279 28.1444311,68.0592305 C29.0993237,67.2232612 30.5627333,64.8379856 29.3555521,64.4477562 C9.69049976,58.0908962 20.5563846,63.3819959 11.5019578,65.6368718 C10.359685,65.9213386 8.60195553,66.6313706 7.97068161,65.6368718 C6.44230164,63.2290867 7.39892973,54.6838383 6.18880241,57.2666125 L5.07976823,57.2666125 C4.55899184,58.3781053 4.68379507,59.6897453 4.4858085,60.9013117 L5.11457055,63.8299734 Z" id="Path-28"></path>
                    <path d="M70.7958441,224.506903 C69.1277731,231.185905 69.1525698,238.88312 61.8864482,240.583189 C58.9169529,241.277967 57.2648841,239.382505 55.2856066,241.772304 C54.9004121,242.237392 54.5246667,242.890846 54.6707655,243.477013 C54.7779346,243.90699 55.4159735,244.071571 55.858685,244.071571 C60.1663518,244.071571 65.2369353,241.007268 68.7680285,243.477013 C71.2054283,245.181798 67.3498158,249.381597 67.6798757,252.339641 C67.7868306,253.298186 68.9961659,254.038269 69.955948,254.123314 C75.883966,254.648591 81.9058157,254.874251 87.8095422,254.123314 C88.7047149,254.009451 89.9078639,251.850528 89.0183431,251.698633 C83.9554309,250.83409 77.5162419,255.036926 73.6101924,251.698633 C70.2752578,248.848442 73.9721314,242.904638 73.6101924,238.530106 C73.5460365,237.754693 70.7576756,236.999427 72.4222729,235.534092 C73.5364244,234.553311 77.8236612,234.423537 76.5011058,233.750419 L77.0950655,232.561303 C70.7244203,229.318945 71.3778291,234.504091 72.4222729,227.242798 L70.7958441,224.506903 Z" id="Path-29"></path>
                    <path d="M216.160528,105.762557 C216.124973,106.262217 216.556582,117.119145 213.190729,118.294722 C209.078665,119.730925 202.367893,115.714722 200.179299,119.483837 C198.875913,121.728479 220.730126,121.295447 220.96789,121.267511 C221.411071,121.215439 221.212303,120.323947 221.585051,120.078395 C221.915823,119.860496 222.621534,120.444635 222.77297,120.078395 C223.64112,117.978819 218.446732,112.059065 217.38093,108.858439 L216.160528,105.762557 Z" id="Path-30"></path>
                </g>
                <g id="fat--middle" transform="translate(168.684564, 120.695238)" fill="#FEFEFE">
                    <path d="M16.6318793,85.3516866 C16.6318793,98.3252143 9.30076557,118.84999 6.02379397,132.240751 C3.41322836,142.908362 -2.60702903,151.203524 2.16018123,161.520898 C5.64808482,169.069548 10.9252539,158.684171 12.0094588,156.662591 C14.6697919,151.702204 26.2946638,137.720885 27.5747974,132.240751 C30.049326,121.64752 29.0387194,113.574113 31.0296535,96.4712795 C31.4566314,92.8033874 30.0517851,92.1438342 38.2655026,63.1125009 C41.3726778,52.1302092 44.0530888,11.955568 38.2655022,0.947026376 C35.8452692,-3.6564875 33.8721997,22.611761 28.688004,23.0819665 C27.5048704,23.1892765 30.3081504,29.9756434 29.2446078,33.6455797 C28.2522661,37.0698255 28.1314003,40.6879886 27.5747965,44.209193 L16.6318793,85.3516866 Z" id="Path-14"></path>
                    <path d="M15.2990742,85.9076662 C15.2983817,85.8565993 9.56977682,51.294387 16.9688855,39.3009352 C17.4605847,38.5039242 18.299355,37.8116927 19.2148687,37.6112783 C20.9967613,37.2212056 22.9769667,36.9779482 24.6874144,37.6112783 C27.95456,38.8210093 25.6408824,42.6780771 28.5097169,42.6780771" id="Path-15"></path>
                </g>
                <path d="M202.413118,364.485623 C205.57827,358.305381 212.35905,346.184118 217.692766,329.584744 C208.356272,333.35856 195.327102,337.340059 177.942397,340.029671 C135.281761,346.629757 160.093525,353.586388 172.376359,356.153081 C184.259468,358.636244 194.206446,361.545999 202.413118,364.485623 Z" id="fat---right-bottom" fill="#FEFEFE"></path>
                <path d="M269.108505,218.260828 C261.626327,224.641204 248.214218,234.403384 238.681402,231.863058 C224.785876,228.160146 238.681402,213.12915 233.6524,207.936387 C230.332345,213.12915 223.685713,217.021008 218.624098,224.059796 C213.562482,231.098585 222.529022,270.006302 222.529021,286.518463 C222.529021,289.984851 223.585237,292.782693 225.254207,295.039918 C228.209312,278.710102 231.857427,263.240508 240.113656,250.103968 C241.851624,247.338675 254.744921,234.055704 269.108505,218.260828 Z" id="fat--right-side" fill="#FEFEFE"></path>
                <path d="M174.848267,414.374752 C153.592637,413.41646 105.564362,366.637071 96.1011203,347.402577 C86.1757417,327.228769 75.8633523,297.327489 65.3096272,261.818633 C54.7559021,226.309777 34.0232925,179.133778 30.126179,163.625244 C21.4509874,129.102383 -7.76418783,12.7223775 2.50689121,4.41526022 C3.20598518,3.84984197 4.62183109,3.38141549 6.65361978,2.99939687 L69.1754127,18.4472308 C69.1754127,18.4472308 31.0850162,27.1887077 20.1942807,48.4701316 C12.5852493,63.3388263 24.9938976,114.924782 35.0442954,149.378265 C36.5076656,154.394803 44.0760613,153.595892 103.413068,137.817798 C44.0760613,157.581137 53.5780454,162.549752 51.7641509,168.344555 C46.7634139,184.320283 56.1213007,208.389411 62.454857,230.162542 C67.0422607,245.932851 79.1189265,257.799058 86.8301887,272.857869 C90.2755442,279.586075 90.0988882,303.482259 96.7751327,323.284788 C104.056972,344.883584 116.286704,366.473113 116.286704,366.473113 L163.608896,402.915842 C163.608896,402.915842 172.270194,408.675644 174.848267,414.374752 Z" id="fat--left" fill="#FEFEFE"></path>
                <path d="M308.211669,7.5041654 C308.785041,8.41802155 309.73252,9.56607302 311.130638,10.9892851 C325.025077,25.1331028 332.434865,23.8864919 332.434865,42.5791356 C332.434865,61.2717794 335.963646,75.5372222 329.98233,92.4327052 C324.001013,109.328188 327.84832,125.739361 313.378796,152.426384 C309.566199,159.458187 305.658503,168.858715 301.970523,178.891486 C303.926391,176.128251 305.650192,173.510129 307.075682,171.091876 C322.144819,145.528047 329.75946,112.703155 329.75946,112.703155 C329.75946,112.703155 344.998415,21.6256938 329.759471,10.3529491 C329.680205,10.2943132 329.592355,10.2366663 329.496096,10.1799946 C328.474628,9.91890253 327.84832,9.87732586 327.84832,9.87732586 C327.84832,9.87732586 327.037747,9.53225759 325.740266,9.01536396 C321.827414,8.25845238 315.64738,7.78116033 308.211669,7.5041654 Z" id="fat--right-top" fill="#FEFEFE"></path>
                <path d="M2.00464328,3.03182649 C-3.01311838,12.4412749 10.2689061,31.3129477 22.9446861,33.6302535 C35.6204662,35.9475592 94.0616932,-4.30449878 150.604805,21.2010675 C158.767916,24.8832976 163.308848,39.0119619 179.400354,83.4273517 C195.49186,127.842742 178.434998,267.969158 178.287146,281.356105 C193.641587,285.738789 210.635396,128.565949 210.635392,92.4707081 C210.635396,43.6921819 223.682963,53.7541096 255.20283,43.6921815 C286.722697,33.6302535 312.106873,30.0945704 329.935584,10.2074388 C307.243113,-0.506028344 242.344421,7.43622748 220.50859,6.59791455 C220.508594,31.404163 204.627989,38.7839254 198.516215,38.7839237 C192.40444,38.7839221 171.368739,29.727536 178.434994,6.59791468 C139.000925,1.77218507 152.667251,2.78649762 102.48467,1.77218511 C52.3020883,0.757872611 4.45065594,-1.55500557 2.00464328,3.03182649 Z" id="bone" fill="#D7CCC8"></path>
                <path d="M16.687242,11.8189107 C16.687242,25.01474 32.0090654,22.5106591 32.0090654,22.5106591 C32.0090654,22.5106591 114.890846,-1.85688512 153.466097,14.3164758 C192.041347,30.4898368 183.572708,59.6114426 188.710422,71.8039023 C199.420696,150.837703 188.710422,234.864471 188.710422,234.864471 C188.710422,234.864471 202.823371,125.436307 197.83568,79.8525765 C192.847988,34.2688459 252.454599,24.882261 252.454599,24.882261 C252.454599,24.882261 311.780734,17.5828564 306.392983,11.818911 C301.005233,6.05496568 245.975383,15.3024712 240.200619,17.8000359 C234.425855,20.2976007 216.958063,37.5221097 195.241819,47.4450441 C184.675044,40.2173079 173.523401,20.1607776 153.466097,8.19201262 C109.050855,8.19201296 16.687242,-1.3769187 16.687242,11.8189107 Z" id="marrow" opacity="0.285272854" fill="#C5A39B"></path>
            </g>
        </g>
        <g id="no" sketch:type="MSLayerGroup" fill="#E61919">
            <g id="Rectangle-3-+-Oval-2" sketch:type="MSShapeGroup">
                <rect id="Rectangle-3" transform="translate(306.516811, 306.516811) rotate(-45.000000) translate(-306.516811, -306.516811) " x="277.516811" y="9.51681067" width="58" height="594"></rect>
                <path d="M307,614 C476.551418,614 614,476.551418 614,307 C614,137.448582 476.551418,0 307,0 C137.448582,0 0,137.448582 0,307 C0,476.551418 137.448582,614 307,614 Z M307,561 C447.280326,561 561,447.280326 561,307 C561,166.719674 447.280326,53 307,53 C166.719674,53 53,166.719674 53,307 C53,447.280326 166.719674,561 307,561 Z" id="Oval-2"></path>
            </g>
        </g>
    </g>
</svg>