<?xml version="1.0" encoding="UTF-8" standalone="no"?>
<svg width="596px" height="735px" viewBox="0 0 596 735" version="1.1" xmlns="http://www.w3.org/2000/svg" xmlns:xlink="http://www.w3.org/1999/xlink" xmlns:sketch="http://www.bohemiancoding.com/sketch/ns">
    <!-- Generator: Sketch 3.4.4 (17249) - http://www.bohemiancoding.com/sketch -->
    <title>steak</title>
    <desc>Created with Sketch.</desc>
    <defs></defs>
    <g id="Steak" stroke="none" stroke-width="1" fill="none" fill-rule="evenodd" sketch:type="MSPage">
        <g id="steak" sketch:type="MSLayerGroup">
            <g id="side" transform="translate(0.000000, 1.870229)" sketch:type="MSShapeGroup">
                <path d="M33.2709562,42.9604753 C15.978405,56.9324002 65.1655363,252.674514 79.771226,310.73928 C86.332468,336.823429 121.238217,416.169788 139.006636,475.892921 C156.775054,535.616054 174.137156,585.907681 190.847681,619.838457 C195.917331,630.132399 235.081998,670.459218 235.081998,670.459218 L274.052354,707.793126 C274.052354,707.793126 315.932268,734.625577 328.335186,732.150823 C360.976523,725.637897 356.909635,673.928987 369.608156,649.016952 C376.859167,634.791876 396.420416,600.69117 404.508068,553.580481 C410.584128,518.187345 415.772107,484.065501 433.309463,456.189766 C439.181024,446.856885 520.677151,366.293948 546.04779,323.297576 C571.418429,280.301204 584.238557,225.092289 584.238557,225.092289 C584.238557,225.092289 609.895103,71.9070855 584.238576,52.947206 C581.17928,50.6864211 554.093731,14.6951783 554.093731,14.6951783 C554.093731,14.6951783 404.508068,50.2295296 404.508068,50.2295296 C404.508068,50.2295296 381.472402,69.0194866 351.660363,69.0194865 C321.848323,69.0194865 297.414318,9.25982643 297.414318,9.25982526 C297.414318,9.2598241 50.5635073,28.9885504 33.2709562,42.9604753 Z" fill="#D05252"></path>
                <path d="M541.554103,330.444027 C543.196938,327.966918 544.701397,325.579347 546.04779,323.297576 C571.418429,280.301204 584.238557,225.092289 584.238557,225.092289 C584.238557,225.092289 609.895103,71.9070855 584.238576,52.947206 C581.17928,50.6864211 554.093731,14.6951783 554.093731,14.6951783 L525.352304,21.5227576 L489.027049,272.151196 L541.554103,330.444027 Z" id="top" fill="#F1C6C6"></path>
                <path d="M408.559602,530.298275 C413.489,503.374884 419.657417,477.889777 433.309463,456.189766 C436.324719,451.396999 459.283599,427.819523 484.343321,400.191558 L431.88183,344.717542 L360.676346,470.238401 L408.559603,530.298272 Z" fill="#F1C6C6"></path>
                <path d="M368.852128,650.573024 C369.097474,650.043607 369.349333,649.524713 369.608156,649.016952 C374.619126,639.186401 385.509226,619.863637 394.428779,593.314615 L345.26167,533.559533 L334.243342,600.869513 L368.852128,650.573024 Z" id="bottom" fill="#F1C6C6"></path>
                <path d="M175.621502,585.026477 C180.75124,597.98113 185.828848,609.6477 190.847681,619.838457 C195.917331,630.132399 235.081998,670.459218 235.081998,670.459218 L274.052354,707.793126 C274.052354,707.793126 315.932268,734.625577 328.335186,732.150823 C329.875177,731.843549 331.33346,731.435674 332.715651,730.934758 L287.60031,688.364817 L175.621502,585.026477 Z M4.22064171,5.55589516 C-13.0719095,19.5278201 36.1152218,215.269934 50.7209115,273.3347 C57.2821536,299.418849 92.1879029,378.765208 109.956321,438.488341 C127.72474,498.211474 145.086842,548.503101 161.797366,582.433877 C178.507891,616.364653 266.643534,701.259169 299.284871,694.746243 C331.926209,688.233316 327.859321,636.524407 340.557842,611.612372 C347.808852,597.387296 367.370102,563.286589 375.457754,516.175901 C381.533813,480.782765 386.721792,446.660921 404.259149,418.785186 C410.13071,409.452305 491.626837,328.889368 516.997475,285.892996 C542.368114,242.896624 555.188243,187.687709 555.188243,187.687709 C555.188243,187.687709 580.844789,34.5025054 555.188262,15.5426258 C541.486742,5.41736021 375.457754,12.8249495 375.457754,12.8249495 C375.457754,12.8249495 364.955893,58.3789064 335.143853,58.3789064 C305.331814,58.3789064 299.284871,12.8249506 299.284871,12.8249495 C299.284871,12.8249483 21.5131929,-8.41602978 4.22064171,5.55589516 Z" id="left" fill="#F1C6C6"></path>
            </g>
            <g id="top" sketch:type="MSShapeGroup">
                <path d="M4.22064171,7.42612417 C-13.0719095,21.3980491 36.1152218,217.140163 50.7209115,275.204929 C57.2821536,301.289078 92.1879029,380.635437 109.956321,440.35857 C127.72474,500.081703 145.086842,550.37333 161.797366,584.304106 C178.507891,618.234882 266.643534,703.129398 299.284871,696.616472 C331.926209,690.103545 327.859321,638.394636 340.557842,613.482601 C347.808852,599.257525 367.370102,565.156818 375.457754,518.04613 C381.533813,482.652994 386.721792,448.53115 404.259149,420.655415 C410.13071,411.322534 491.626837,330.759597 516.997475,287.763225 C542.368114,244.766853 555.188243,189.557938 555.188243,189.557938 C555.188243,189.557938 580.844789,36.3727344 555.188262,17.4128548 C541.486742,7.28758921 375.457754,14.6951785 375.457754,14.6951785 C375.457754,14.6951785 364.955893,60.2491354 335.143853,60.2491354 C305.331814,60.2491354 299.284871,14.6951796 299.284871,14.6951785 C299.284871,14.6951773 21.5131929,-6.54580077 4.22064171,7.42612417 Z" id="meat" fill="#D32F2F"></path>
                <g id="marbling" transform="translate(101.119497, 87.900763)" fill="#FEFEFE" opacity="0.652810168">
                    <path d="M62.9437647,1.32231035 C96.2900409,49.3867446 55.1121145,35.5758519 62.9437647,52.790136 C64.8953994,57.079908 67.9872172,60.8771305 71.4143327,64.117441 C72.0912868,64.7574956 73.7019945,64.1804118 74.101194,63.3393965 C76.9345442,57.3702237 76.1714201,49.4904148 80.6609424,44.6371064 C84.4805491,40.5079969 92.0020784,19.7688118 97.1920945,17.588188 C98.0063712,17.2460636 110.647766,30.8445191 113.459685,33.4887891 C117.066526,36.8805872 128.851194,48.3126431 135.950251,48.7136222 C151.235051,49.57696 147.86584,55.2795525 163.126351,54.0613073 C168.034332,53.6695036 166.990999,50.0194914 157.50371,41.9048187 C150.889615,36.2476479 144.007955,37.5090746 135.950251,33.4887882 C125.321995,28.1859587 121.940838,20.9339629 113.459685,12.9162691 C111.508977,11.07216 109.418891,9.17431918 106.899936,8.24069656 C98.3728142,5.08021377 89.263212,3.71052368 80.6609424,0.759780534 C79.1839267,0.253135857 62.9437647,1.32231035 62.9437647,1.32231035 Z" id="Path-11"></path>
                    <path d="M171.98494,114.34697 C171.129818,115.078374 161.989133,126.503459 160.739657,124.63323 C160.249572,123.899666 156.896705,130.599098 159.80255,131.179031 C165.614241,132.338898 181.938039,114.452903 194.226586,114.452903 C206.515132,114.452903 191.442907,137.01137 188.409936,138.572282 C182.314905,141.709076 186.062518,158.857218 181.213247,163.696179 C179.446222,165.459448 187.152543,159.527744 188.409936,157.113849 C194.226586,145.947267 187.290146,136.340287 195.269851,133.155191 C201.367326,130.721387 206.036159,117.683722 211.749753,114.452903 C215.446197,112.362705 224.962783,115.53767 225.257272,114.452901 C225.921786,112.005126 228.32538,105.928015 229.0057,105.032353 C232.11946,100.932992 235.309447,96.7818934 237.439662,92.0978203 C238.214179,90.3947558 238.160513,88.2134985 237.439662,86.4871332 C234.504883,79.4586393 218.802636,61.9303925 211.749753,65.4689734 C209.765573,66.4644786 206.779862,91.7907782 206.515134,96.8099207 C206.440617,98.2227291 198.976158,101.515789 194.226587,103.425125 C194.226587,103.425125 174.463155,112.227303 171.98494,114.34697 Z" id="Path-12"></path>
                    <path d="M87.5594179,218.816794 C92.9223744,218.816794 99.6976519,226.538339 101.835474,240.063106 C102.263455,242.770693 102.936889,249.66919 101.835474,248.811588 C99.1559869,246.725241 97.7688081,238.917987 95.4151074,235.063974 C92.2720182,229.917395 85.2113127,251.47759 85.0244533,252.560937 C84.2314463,257.158523 86.3566326,263.012502 85.5183277,267.558334 C84.9235161,270.783788 82.9566754,270.752553 81.5673326,271.307684 C80.6122875,271.689285 70.9375359,272.87931 73.6653424,260.059636 C74.4950102,256.160506 76.496024,254.71319 77.6163375,251.311154 C80.5378331,242.439499 82.1914263,231.516212 86.031494,225.01689 L87.5594179,218.816794 Z" id="Path-13"></path>
                    <path d="M345.157597,45.8206107 C338.422141,45.8206107 340.388646,83.7755556 338.422141,88.4549424 C336.114233,93.9467137 331.2979,75.5448803 330.163887,81.3914897 C329.136914,86.6862314 321.044726,107.39861 322.667031,112.286796 C324.013905,116.345078 348.906025,76.7524451 365.755646,104.908158 C382.605268,133.063872 384.052815,132.930695 384.516088,130.989086 C390.609703,105.450317 360.15748,96.2135019 348.906025,76.7524451 C344.048826,68.3512003 345.157597,45.8206107 345.157597,45.8206107 Z" id="Path-16"></path>
                    <path d="M8.61097189,107.357049 C6.32190939,110.036737 3.48187125,112.330237 1.74378439,115.396112 C-2.46871039,122.826684 11.3578182,122.402795 14.6461281,117.47033 C15.0159283,116.91563 14.0633566,115.794092 14.6461281,115.47033 C17.4104562,113.934593 20.5046933,112.832804 23.6461281,112.47033 C29.2754454,111.820794 35.0111505,111.871884 40.6461281,112.47033 C43.6693596,112.791404 41.4175378,119.688826 47.3844094,114.47033 C48.9920818,113.064295 51.4559013,109.052447 49.4234719,108.396112 C16.3150787,97.7043677 34.6090542,106.603586 19.3648781,110.396112 C17.4417296,110.874563 14.4823884,112.068781 13.4195656,110.396112 C10.846361,106.346404 12.4569551,91.9739614 10.4195656,96.3179866 L8.55237814,96.3179866 C7.67559078,98.1874311 7.88571148,100.393507 7.55237814,102.431268 L8.61097189,107.357049 Z" id="Path-28"></path>
                    <path d="M119.193003,377.603143 C116.384612,388.836706 116.42636,401.782822 104.193003,404.642205 C99.1935139,405.810769 96.4120648,402.622748 93.0797219,406.642205 C92.4312024,407.424447 91.7985915,408.523505 92.0445656,409.509393 C92.2249972,410.23258 93.2992097,410.509393 94.0445656,410.509393 C101.297022,410.509393 109.833936,405.355474 115.778941,409.509393 C119.882586,412.376709 113.391215,419.440444 113.946909,424.415643 C114.12698,426.027841 116.163036,427.272603 117.778941,427.415643 C127.759446,428.299118 137.897927,428.67866 147.837534,427.415643 C149.344661,427.224134 151.370302,423.592993 149.872691,423.337518 C141.348691,421.883424 130.507571,428.952267 123.931284,423.337518 C118.316536,418.543718 124.540651,408.546702 123.931284,401.18908 C123.82327,399.884896 119.128742,398.614597 121.931284,396.150018 C123.807087,394.500421 131.025147,394.282151 128.798472,393.150018 L129.798472,391.150018 C119.072753,385.696623 120.172842,394.417635 121.931284,382.204705 L119.193003,377.603143 Z" id="Path-29"></path>
                    <path d="M363.931284,177.884393 C363.871424,178.724781 364.598087,196.985289 358.931284,198.962518 C352.008147,201.3781 340.709787,194.623159 337.025034,200.962518 C334.830634,204.737831 371.624732,204.009504 372.025034,203.962518 C372.771181,203.874937 372.436532,202.375517 373.064097,201.962518 C373.62099,201.596028 374.809137,202.578505 375.064097,201.962518 C376.525728,198.431194 367.780373,188.474629 365.985972,183.091424 L363.931284,177.884393 Z" id="Path-30"></path>
                </g>
                <g id="fat--middle" transform="translate(284.000000, 203.000000)" fill="#FEFEFE">
                    <path d="M28.0016952,143.554896 C28.0016952,165.37536 15.658916,199.896436 10.1417548,222.418654 C5.74656527,240.360746 -4.38923532,254.312564 3.63691529,271.665583 C9.50920495,284.361826 18.3939302,266.894429 20.2193148,263.494289 C24.6982938,255.151304 44.270112,231.635814 46.4253651,222.418654 C50.5915206,204.601663 48.8900474,191.022822 52.2420155,162.257186 C52.9608822,156.088077 50.5956609,154.97876 64.4244055,106.150316 C69.6556949,87.678956 74.1684773,20.1083353 64.4244048,1.59282468 C60.3496623,-6.14992748 57.0277712,38.0312228 48.2995774,38.8220718 C46.307635,39.0025588 51.0272814,50.4167 49.2366844,56.5892474 C47.5659621,62.3485623 47.3624705,68.4340311 46.4253636,74.3564229 L28.0016952,143.554896 Z" id="Path-14"></path>
                    <path d="M25.7577634,144.490011 C25.7565975,144.40412 16.1118276,86.273168 28.5690841,66.1011152 C29.3969167,64.7606048 30.8090835,63.5963252 32.350457,63.2592438 C35.3504795,62.6031719 38.6843846,62.1940318 41.5641215,63.2592438 C47.0647395,65.2939173 43.1693951,71.7812053 47.9994104,71.7812053" id="Path-15"></path>
                </g>
                <path d="M340.785928,613.036459 C346.114828,602.641774 357.531055,582.254753 366.510984,554.335899 C350.79192,560.683161 328.855802,567.379733 299.586635,571.903451 C227.762513,583.004283 269.535991,594.704795 290.215566,599.021772 C310.222155,603.19826 326.969044,608.09224 340.785928,613.036459 Z" id="fat---right-bottom" fill="#FEFEFE"></path>
                <path d="M453.075337,367.097731 C440.478223,377.829028 417.897384,394.248255 401.847784,389.975623 C378.453057,383.747615 401.847784,358.466648 393.380876,349.732824 C387.79118,358.466648 376.600805,365.01245 368.078989,376.851145 C359.557173,388.68984 374.653381,454.129592 374.65338,481.901762 C374.65338,487.731958 376.431642,492.43771 379.241546,496.234187 C384.216808,468.768708 390.358832,442.750054 404.259149,420.655415 C407.18522,416.004408 428.89258,393.663484 453.075337,367.097731 Z" id="fat--right-side" fill="#FEFEFE"></path>
                <path d="M294.377309,696.946094 C258.590994,695.33432 177.72983,616.655027 161.797366,584.304106 C145.086842,550.37333 127.72474,500.081703 109.956321,440.35857 C92.1879029,380.635437 57.2821536,301.289078 50.7209115,275.204929 C36.1152218,217.140163 -13.0719095,21.3980491 4.22064171,7.42612417 C5.39764736,6.47513466 7.78138794,5.68727777 11.2021395,5.04475217 L116.464819,31.026807 C116.464819,31.026807 52.335225,45.7292909 33.9994104,81.5229902 C21.1887248,106.530978 42.0801213,193.294541 59.0011301,251.24262 C61.4648833,259.680046 74.2071541,258.33634 174.107876,231.798813 C74.2071541,265.039212 90.2048448,273.396037 87.1509434,283.142444 C78.7316234,310.012375 94.4867097,350.494776 105.149985,387.115488 C112.873411,413.63992 133.205876,433.597959 146.188679,458.925707 C151.989334,470.242025 151.691913,510.433548 162.932144,543.739862 C175.191964,580.067355 195.782134,616.379264 195.782134,616.379264 L275.454525,677.673098 C275.454525,677.673098 290.036824,687.360637 294.377309,696.946094 Z" id="fat--left" fill="#FEFEFE"></path>
                <path d="M518.910041,12.6214224 C519.87538,14.1584573 521.47057,16.0893905 523.824464,18.4831226 C547.217362,42.2719235 559.692598,40.175221 559.692598,71.6147934 C559.692598,103.054366 565.633709,127.047731 555.56347,155.464619 C545.493232,183.881506 551.970617,211.483822 527.609498,256.369318 C521.19055,268.196264 514.611491,284.00722 508.402349,300.881562 C511.695281,296.234015 514.597498,291.830537 516.997475,287.763225 C542.368114,244.766853 555.188243,189.557938 555.188243,189.557938 C555.188243,189.557938 580.844789,36.3727344 555.188262,17.4128548 C555.054808,17.3142339 554.906902,17.2172763 554.74484,17.1219589 C553.025081,16.6828223 551.970617,16.6128936 551.970617,16.6128936 C551.970617,16.6128936 550.605924,16.0325156 548.421465,15.1631408 C541.833726,13.8900744 531.428922,13.0873063 518.910041,12.6214224 Z" id="fat--right-top" fill="#FEFEFE"></path>
                <path d="M3.37504914,5.09929628 C-5.07293376,20.9252565 17.2888927,52.6659418 38.6300366,56.5634698 C59.9711804,60.4609978 158.363755,-7.23983204 253.560633,35.658546 C267.304174,41.8517705 274.949359,65.6150846 302.041274,140.318315 C329.133188,215.021545 300.415985,450.703275 300.16706,473.219078 C326.018039,480.590411 354.629085,216.237924 354.629078,155.528536 C354.629085,73.4868506 376.596176,90.4102301 429.663522,73.48685 C482.730868,56.5634698 525.468069,50.616726 555.484768,17.1681178 C517.279365,-0.851100304 408.014901,12.5071561 371.251751,11.0971789 C371.251758,52.8193588 344.514919,65.231545 334.225039,65.2315422 C323.935159,65.2315395 288.51912,49.9994027 300.415979,11.0971792 C234.024157,2.9806774 257.032999,4.68667219 172.544811,2.98067748 C88.0566233,1.27468277 7.49319474,-2.61539838 3.37504914,5.09929628 Z" id="bone" fill="#D7CCC8"></path>
                <path d="M28.0949047,19.8784882 C28.0949047,42.0728465 53.8909689,37.8611773 53.8909689,37.8611773 C53.8909689,37.8611773 193.432046,-3.1231363 258.377948,24.0791985 C323.32385,51.2815332 309.065915,100.261808 317.715851,120.768577 C335.747838,253.697281 317.715851,395.023766 317.715851,395.023766 C317.715851,395.023766 341.476636,210.974109 333.07928,134.305821 C324.681923,57.6375326 425.036557,41.850027 425.036557,41.850027 C425.036557,41.850027 524.918976,29.5729964 515.848074,19.8784888 C506.777172,10.1839812 414.128046,25.7375659 404.405562,29.9382756 C394.683078,34.1389852 365.274027,63.1092691 328.712215,79.7988729 C310.921826,67.6423828 292.146742,33.9088594 258.377948,13.7783279 C183.599744,13.7783284 28.0949047,-2.31587012 28.0949047,19.8784882 Z" id="marrow" opacity="0.285272854" fill="#C5A39B"></path>
            </g>
        </g>
    </g>
</svg>