<svg width="618" height="618" viewBox="0 0 618 618" xmlns="http://www.w3.org/2000/svg"><title>There&amp;apos;s been a misteak</title><g fill="none" fill-rule="evenodd"><path d="M154.762 157.654c-10.27 8.308 18.944 124.688 27.62 159.21 3.896 15.51 24.63 62.685 35.182 98.194 10.554 35.51 20.866 65.41 30.792 85.584 3.01 6.12 26.273 30.097 26.273 30.097l23.14 22.19s24.87 15.95 32.24 14.48c19.39-3.87 16.97-34.62 24.51-49.43 4.3-8.46 15.92-28.74 20.73-56.75 3.61-21.05 6.69-41.33 17.1-57.91 3.49-5.55 51.89-53.45 66.96-79.017 15.07-25.564 22.68-58.39 22.68-58.39s15.24-91.077 0-102.35c-1.81-1.34-17.9-22.74-17.9-22.74l-88.85 21.126s-13.69 11.173-31.39 11.173-32.22-35.53-32.22-35.53-146.62 11.73-156.89 20.032z" fill="#D05252"/><path d="M456.66 328.58c.977-1.473 1.87-2.892 2.67-4.25 15.07-25.563 22.684-58.388 22.684-58.388s15.24-91.077 0-102.35c-1.817-1.344-17.905-22.743-17.905-22.743l-8.58 2.04-30.07 151.03 31.2 34.66zm-78.992 118.825c2.928-16.008 6.592-31.16 14.7-44.062 1.79-2.85 15.428-16.868 30.312-33.294l-31.16-32.99-42.293 74.63 28.44 35.71zm-23.585 71.51c.146-.315.296-.623.45-.925 2.976-5.845 9.444-17.333 14.742-33.118l-29.203-35.528-6.545 40.02 20.556 29.55z" fill="#F1C6C6"/><path d="M239.312 479.944c3.047 7.702 6.063 14.64 9.044 20.698 3.01 6.12 26.273 30.097 26.273 30.097l23.14 22.19s24.87 15.95 32.24 14.48c.91-.19 1.78-.43 2.6-.73l-26.8-25.31-66.51-61.44zm-101.805-344.53c-10.27 8.308 18.944 124.688 27.62 159.21 3.896 15.51 24.63 62.686 35.183 98.195 10.553 35.5 20.866 65.41 30.79 85.58 9.926 20.17 62.276 70.65 81.663 66.77 19.388-3.88 16.972-34.62 24.515-49.43 4.306-8.46 15.925-28.73 20.73-56.74 3.608-21.05 6.69-41.33 17.106-57.91 3.487-5.55 51.893-53.45 66.962-79.01 15.07-25.57 22.683-58.39 22.683-58.39s15.23-91.08 0-102.35c-8.14-6.02-106.76-1.62-106.76-1.62s-6.24 27.08-23.95 27.08-21.3-27.09-21.3-27.09-164.98-12.62-175.25-4.31z" fill="#F1C6C6"/><path d="M137.507 135.415c-10.27 8.307 18.944 124.687 27.62 159.21 3.896 15.51 24.63 62.685 35.183 98.194 10.553 35.5 20.866 65.41 30.79 85.58 9.926 20.17 62.276 70.65 81.663 66.77 19.388-3.88 16.972-34.62 24.515-49.43 4.306-8.46 15.925-28.73 20.73-56.74 3.608-21.05 6.69-41.33 17.106-57.91 3.487-5.55 51.893-53.45 66.962-79.01 15.07-25.57 22.683-58.39 22.683-58.39s15.23-91.08 0-102.35c-8.14-6.02-106.76-1.62-106.76-1.62s-6.24 27.08-23.95 27.08-21.3-27.09-21.3-27.09-164.98-12.62-175.25-4.31z" fill="#D32F2F"/><path d="M232.447 184.048c19.806 28.577-4.652 20.366 0 30.6 1.16 2.55 2.996 4.81 5.03 6.736.403.38 1.36.037 1.597-.463 1.683-3.54 1.23-8.23 3.896-11.12 2.27-2.45 6.736-14.78 9.82-16.08.483-.2 7.99 7.88 9.66 9.46 2.144 2.02 9.143 8.82 13.36 9.05 9.078.52 7.077 3.91 16.14 3.18 2.917-.23 2.297-2.4-3.338-7.23-3.93-3.36-8.016-2.61-12.802-5-6.313-3.15-8.32-7.46-13.36-12.23-1.157-1.1-2.4-2.22-3.895-2.78-5.065-1.88-10.475-2.69-15.585-4.45-.877-.3-10.523.34-10.523.34zm64.766 67.2c-.508.435-5.937 7.228-6.68 6.116-.29-.436-2.282 3.547-.556 3.892 3.452.69 13.148-9.945 20.447-9.945 7.3 0-1.654 13.42-3.455 14.34-3.62 1.87-1.4 12.07-4.28 14.94-1.05 1.05 3.53-2.48 4.27-3.91 3.45-6.64-.67-12.35 4.07-14.24 3.62-1.44 6.39-9.2 9.79-11.12 2.19-1.24 7.84.65 8.02 0 .39-1.45 1.82-5.07 2.22-5.6 1.85-2.43 3.74-4.9 5.01-7.69.46-1.01.43-2.31 0-3.33-1.75-4.18-11.07-14.6-15.26-12.49-1.18.59-2.95 15.65-3.11 18.638-.05.84-4.48 2.8-7.3 3.934 0 0-11.74 5.236-13.21 6.496zm-50.145 62.112c3.185 0 7.21 4.592 8.48 12.633.253 1.61.653 5.712 0 5.202-1.592-1.24-2.416-5.882-3.814-8.174-1.867-3.06-6.06 9.76-6.172 10.41-.47 2.74.79 6.22.293 8.92-.353 1.92-1.52 1.9-2.346 2.23-.57.23-6.32.94-4.7-6.68.49-2.32 1.68-3.18 2.34-5.2 1.73-5.27 2.71-11.76 5-15.63l.9-3.68zM400.07 210.505c-4 0-2.832 22.566-4 25.35-1.37 3.264-4.23-7.677-4.905-4.2-.61 3.147-5.416 15.462-4.453 18.368.8 2.413 15.585-21.127 25.593-4.387s10.868 16.66 11.143 15.507c3.62-15.185-14.468-20.676-21.15-32.247-2.886-4.995-2.227-18.39-2.227-18.39zm-199.895 36.587c-1.36 1.593-3.046 2.957-4.078 4.78-2.502 4.418 5.71 4.166 7.663 1.233.22-.33-.346-.997 0-1.19 1.642-.912 3.48-1.567 5.346-1.783 3.343-.386 6.75-.356 10.097 0 1.796.19.458 4.292 4.002 1.19.955-.837 2.42-3.222 1.21-3.612-19.664-6.357-8.798-1.066-17.852 1.19-1.142.283-2.9.993-3.53 0-1.53-2.41-.573-10.954-1.783-8.37h-1.11c-.52 1.11-.395 2.422-.593 3.633l.628 2.93zm65.682 160.678c-1.668 6.678-1.644 14.375-8.91 16.075-2.97.695-4.62-1.2-6.6 1.19-.386.464-.76 1.118-.615 1.704.107.43.745.59 1.188.59 4.307 0 9.378-3.07 12.91-.6 2.436 1.7-1.42 5.9-1.09 8.86.108.95 1.317 1.69 2.277 1.78 5.928.52 11.95.75 17.853 0 .896-.12 2.1-2.28 1.21-2.43-5.064-.87-11.503 3.34-15.41 0-3.334-2.85.363-8.8 0-13.17-.063-.78-2.85-1.53-1.187-3 1.114-.98 5.402-1.11 4.08-1.78l.593-1.19c-6.37-3.24-5.717 1.94-4.673-5.32l-1.626-2.738zM411.22 289.025c-.034.5.397 11.356-2.968 12.532-4.112 1.436-10.823-2.58-13.012 1.19-1.303 2.244 20.55 1.81 20.79 1.783.442-.052.243-.944.616-1.19.33-.217 1.036.367 1.188 0 .868-2.1-4.326-8.02-5.392-11.22l-1.22-3.095z" fill="#FEFEFE" opacity=".653"/><g fill="#FEFEFE"><path d="M320.316 337.047c0 12.973-7.33 33.498-10.608 46.89-2.61 10.667-8.63 18.962-3.863 29.28 3.488 7.548 8.765-2.838 9.85-4.86 2.66-4.96 14.284-18.94 15.564-24.42 2.47-10.594 1.46-18.668 3.45-35.77.42-3.668-.98-4.328 7.23-33.36 3.1-10.982 5.78-51.156 0-62.165-2.42-4.603-4.4 21.665-9.58 22.135-1.19.108 1.62 6.894.55 10.564-1 3.43-1.12 7.05-1.67 10.57l-10.94 41.14z"/><path d="M318.984 337.603c0-.05-5.73-34.613 1.67-46.607.49-.797 1.33-1.49 2.245-1.69 1.78-.39 3.76-.633 5.47 0 3.26 1.21.95 5.067 3.82 5.067"/></g><path d="M337.413 495.486c3.165-6.18 9.946-18.302 15.28-34.9-9.337 3.773-22.366 7.754-39.75 10.444-42.66 6.6-17.85 13.556-5.567 16.123 11.883 2.483 21.83 5.393 30.037 8.333zM404.11 349.26c-7.484 6.38-20.896 16.143-30.43 13.603-13.894-3.703 0-18.734-5.028-23.927-3.32 5.193-9.966 9.085-15.028 16.124-5.062 7.04 3.905 45.946 3.905 62.458 0 3.467 1.05 6.265 2.72 8.522 2.95-16.33 6.6-31.8 14.86-44.936 1.74-2.765 14.63-16.048 28.99-31.843z" fill="#FEFEFE"/><path d="M309.848 545.375c-21.255-.96-69.284-47.738-78.747-66.972-9.92-20.174-20.23-50.076-30.79-85.584-10.55-35.51-31.28-82.69-35.18-98.2-8.67-34.53-37.89-150.91-27.62-159.21.7-.57 2.12-1.04 4.15-1.42l62.52 15.44s-38.09 8.74-48.98 30.02c-7.61 14.87 4.8 66.45 14.85 100.91 1.47 5.01 9.03 4.22 68.37-11.56-59.34 19.76-49.83 24.73-51.65 30.52-5 15.973 4.36 40.042 10.69 61.82 4.59 15.77 16.67 27.633 24.38 42.692 3.45 6.73 3.27 30.624 9.95 50.427 7.28 21.6 19.51 43.19 19.51 43.19l47.33 36.446s8.66 5.76 11.24 11.46zm133.364-406.87c.573.913 1.52 2.06 2.92 3.484 13.893 14.14 21.303 12.89 21.303 31.59 0 18.69 3.53 32.95-2.453 49.85-5.98 16.89-2.134 33.3-16.603 59.99-3.82 7.03-7.72 16.43-11.41 26.46 1.95-2.77 3.68-5.38 5.1-7.8 15.07-25.57 22.68-58.39 22.68-58.39s15.24-91.08 0-102.35c-.08-.06-.17-.12-.27-.17-1.02-.26-1.65-.31-1.65-.31s-.81-.35-2.11-.86c-3.91-.76-10.09-1.24-17.53-1.51z" fill="#FEFEFE"/><path d="M137.005 134.032c-5.018 9.41 8.264 28.28 20.94 30.598 12.675 2.318 71.117-37.934 127.66-12.43 8.163 3.683 12.704 17.812 28.795 62.227 16.092 44.416-.965 184.542-1.113 197.93 15.355 4.382 32.348-152.79 32.348-188.886 0-48.77 13.048-38.71 44.568-48.77 31.52-10.06 56.904-13.59 74.733-33.48-22.693-10.71-87.592-2.77-109.427-3.61 0 24.81-15.89 32.19-22 32.19s-27.15-9.05-20.08-32.18c-39.44-4.822-25.77-3.81-75.95-4.822-50.19-1.013-98.04-3.326-100.48 1.26z" fill="#D7CCC8"/><path d="M151.687 142.82c0 13.195 15.322 10.69 15.322 10.69s82.88-24.367 121.45-8.194c38.57 16.174 30.1 45.295 35.24 57.488 10.71 79.034 0 163.06 0 163.06s14.11-109.428 9.12-155.01c-4.99-45.585 54.62-54.972 54.62-54.972s59.32-7.3 53.93-13.063c-5.39-5.77-60.42 3.48-66.197 5.98-5.774 2.49-23.24 19.72-44.958 29.64-10.57-7.23-21.72-27.29-41.78-39.26-44.416 0-136.78-9.57-136.78 3.62z" opacity=".285" fill="#C5A39B"/><g fill="#E61919"><path d="M76 117.012L117.012 76l420.022 420.02-41.012 41.014z"/><path d="M307 614c169.55 0 307-137.45 307-307S476.55 0 307 0 0 137.45 0 307s137.45 307 307 307zm0-53c140.28 0 254-113.72 254-254S447.28 53 307 53 53 166.72 53 307s113.72 254 254 254z"/></g></g></svg>