<svg width="618" height="618" viewBox="0 0 618 618" xmlns="http://www.w3.org/2000/svg"><title>no</title><g fill="none" fill-rule="evenodd"><path d="M154.762 157.654c-10.27 8.308 18.944 124.688 27.62 159.21 3.896 15.51 24.63 62.685 35.182 98.194 10.554 35.51 20.866 65.41 30.792 85.584 3.01 6.12 26.273 30.097 26.273 30.097l23.146 22.196s24.875 15.953 32.242 14.482c19.388-3.872 16.972-34.616 24.514-49.428 4.307-8.458 15.926-28.732 20.73-56.742 3.608-21.044 6.69-41.33 17.106-57.905 3.488-5.55 51.893-53.448 66.962-79.012 15.07-25.563 22.684-58.388 22.684-58.388s15.24-91.077 0-102.35c-1.817-1.344-17.905-22.743-17.905-22.743l-88.848 21.126s-13.683 11.172-31.39 11.172-32.22-35.53-32.22-35.53-146.62 11.73-156.89 20.036z" fill="#D05252"/><path d="M456.66 328.58c.977-1.473 1.87-2.892 2.67-4.25 15.07-25.563 22.684-58.388 22.684-58.388s15.24-91.077 0-102.35c-1.817-1.344-17.905-22.743-17.905-22.743l-8.58 2.04-30.068 151.032 31.2 34.658zM377.668 447.405c2.928-16.008 6.592-31.16 14.7-44.062 1.79-2.85 15.428-16.868 30.312-33.294l-31.16-32.984-42.293 74.63 28.44 35.71zM354.083 518.915c.146-.315.296-.623.45-.925 2.976-5.845 9.444-17.333 14.742-33.118l-29.203-35.528-6.545 40.02 20.556 29.55z" fill="#F1C6C6"/><path d="M239.312 479.944c3.047 7.702 6.063 14.64 9.044 20.698 3.01 6.12 26.273 30.097 26.273 30.097l23.146 22.196s24.875 15.953 32.242 14.482c.915-.183 1.78-.425 2.602-.723l-26.797-25.31-66.51-61.44zm-101.805-344.53c-10.27 8.308 18.944 124.688 27.62 159.21 3.896 15.51 24.63 62.686 35.183 98.195 10.553 35.507 20.866 65.41 30.79 85.583 9.926 20.173 62.276 70.648 81.663 66.776 19.388-3.874 16.972-34.617 24.515-49.43 4.306-8.457 15.925-28.732 20.73-56.742 3.608-21.043 6.69-41.33 17.106-57.904 3.487-5.55 51.893-53.448 66.962-79.012 15.07-25.564 22.683-58.39 22.683-58.39s15.238-91.076 0-102.35c-8.14-6.02-106.753-1.615-106.753-1.615s-6.238 27.085-23.945 27.085-21.3-27.085-21.3-27.085-164.984-12.63-175.255-4.322z" fill="#F1C6C6"/><g><path d="M137.507 135.415c-10.27 8.307 18.944 124.687 27.62 159.21 3.896 15.51 24.63 62.685 35.183 98.194 10.553 35.507 20.866 65.41 30.79 85.583 9.926 20.173 62.276 70.648 81.663 66.776 19.388-3.874 16.972-34.617 24.515-49.43 4.306-8.457 15.925-28.732 20.73-56.742 3.608-21.043 6.69-41.33 17.106-57.904 3.487-5.55 51.893-53.448 66.962-79.012 15.07-25.564 22.683-58.39 22.683-58.39s15.238-91.076 0-102.35c-8.14-6.02-106.753-1.615-106.753-1.615s-6.238 27.085-23.945 27.085-21.3-27.085-21.3-27.085-164.984-12.63-175.255-4.322z" fill="#D32F2F"/><g fill="#FEFEFE" opacity=".653"><path d="M232.447 184.048c19.806 28.577-4.652 20.366 0 30.6 1.16 2.55 2.996 4.81 5.03 6.736.403.38 1.36.037 1.597-.463 1.683-3.548 1.23-8.233 3.896-11.12 2.27-2.454 6.736-14.784 9.82-16.08.483-.204 7.99 7.88 9.66 9.453 2.144 2.017 9.143 8.814 13.36 9.052 9.078.513 7.077 3.904 16.14 3.18 2.917-.233 2.297-2.403-3.338-7.228-3.93-3.364-8.016-2.614-12.802-5.004-6.313-3.153-8.32-7.464-13.36-12.23-1.157-1.098-2.4-2.226-3.895-2.78-5.065-1.88-10.475-2.695-15.585-4.45-.877-.3-10.523.335-10.523.335zM297.213 251.248c-.508.435-5.937 7.228-6.68 6.116-.29-.436-2.282 3.547-.556 3.892 3.452.69 13.148-9.945 20.447-9.945 7.3 0-1.654 13.413-3.455 14.34-3.62 1.866-1.395 12.062-4.276 14.94-1.05 1.047 3.528-2.48 4.275-3.915 3.454-6.64-.666-12.35 4.073-14.244 3.622-1.446 6.395-9.198 9.79-11.12 2.194-1.242 7.847.646 8.022 0 .394-1.454 1.822-5.068 2.226-5.6 1.85-2.437 3.745-4.905 5.01-7.69.46-1.013.43-2.31 0-3.336-1.743-4.18-11.07-14.6-15.258-12.497-1.18.592-2.952 15.65-3.11 18.634-.044.84-4.477 2.8-7.298 3.934 0 0-11.74 5.234-13.21 6.494zM247.068 313.36c3.185 0 7.21 4.592 8.48 12.633.253 1.61.653 5.712 0 5.202-1.592-1.24-2.416-5.882-3.814-8.174-1.867-3.06-6.06 9.76-6.172 10.404-.47 2.734.79 6.214.293 8.917-.353 1.92-1.52 1.9-2.346 2.23-.57.227-6.315.935-4.695-6.687.493-2.32 1.68-3.18 2.347-5.202 1.735-5.274 2.717-11.768 4.998-15.632l.908-3.687zM400.07 210.505c-4 0-2.832 22.566-4 25.35-1.37 3.264-4.23-7.677-4.905-4.2-.61 3.147-5.416 15.462-4.453 18.368.8 2.413 15.585-21.127 25.593-4.387s10.868 16.66 11.143 15.507c3.62-15.185-14.468-20.676-21.15-32.247-2.886-4.995-2.227-18.39-2.227-18.39zM200.175 247.092c-1.36 1.593-3.046 2.957-4.078 4.78-2.502 4.418 5.71 4.166 7.663 1.233.22-.33-.346-.997 0-1.19 1.642-.912 3.48-1.567 5.346-1.783 3.343-.386 6.75-.356 10.097 0 1.796.19.458 4.292 4.002 1.19.955-.837 2.42-3.222 1.21-3.612-19.664-6.357-8.798-1.066-17.852 1.19-1.142.283-2.9.993-3.53 0-1.53-2.41-.573-10.954-1.783-8.37h-1.11c-.52 1.11-.395 2.422-.593 3.633l.628 2.93zM265.857 407.77c-1.668 6.678-1.644 14.375-8.91 16.075-2.97.695-4.62-1.2-6.6 1.19-.386.464-.76 1.118-.615 1.704.107.43.745.594 1.188.594 4.307 0 9.378-3.065 12.91-.595 2.436 1.704-1.42 5.904-1.09 8.862.108.958 1.317 1.698 2.277 1.783 5.928.526 11.95.75 17.853 0 .896-.113 2.1-2.272 1.21-2.424-5.064-.864-11.503 3.34-15.41 0-3.334-2.85.363-8.793 0-13.168-.063-.775-2.85-1.53-1.187-2.996 1.114-.98 5.402-1.11 4.08-1.783l.593-1.19c-6.37-3.242-5.717 1.943-4.673-5.318l-1.626-2.736zM411.22 289.025c-.034.5.397 11.356-2.968 12.532-4.112 1.436-10.823-2.58-13.012 1.19-1.303 2.244 20.55 1.81 20.79 1.783.442-.052.243-.944.616-1.19.33-.217 1.036.367 1.188 0 .868-2.1-4.326-8.02-5.392-11.22l-1.22-3.095z"/></g><g fill="#FEFEFE"><path d="M320.316 337.047c0 12.973-7.33 33.498-10.608 46.89-2.61 10.667-8.63 18.962-3.863 29.28 3.488 7.548 8.765-2.838 9.85-4.86 2.66-4.96 14.284-18.94 15.564-24.42 2.474-10.594 1.463-18.668 3.454-35.77.427-3.668-.978-4.328 7.236-33.36 3.107-10.982 5.788-51.156 0-62.165-2.42-4.603-4.393 21.665-9.577 22.135-1.184.108 1.62 6.894.556 10.564-.993 3.425-1.114 7.043-1.67 10.564l-10.944 41.143z"/><path d="M318.984 337.603c0-.05-5.73-34.613 1.67-46.607.49-.797 1.33-1.49 2.245-1.69 1.78-.39 3.762-.633 5.472 0 3.267 1.21.953 5.067 3.822 5.067"/></g><path d="M337.413 495.486c3.165-6.18 9.946-18.302 15.28-34.9-9.337 3.773-22.366 7.754-39.75 10.444-42.66 6.6-17.85 13.556-5.567 16.123 11.883 2.483 21.83 5.393 30.037 8.333zM404.11 349.26c-7.484 6.38-20.896 16.143-30.43 13.603-13.894-3.703 0-18.734-5.028-23.927-3.32 5.193-9.966 9.085-15.028 16.124-5.062 7.04 3.905 45.946 3.905 62.458 0 3.467 1.055 6.265 2.724 8.522 2.955-16.33 6.603-31.8 14.86-44.936 1.738-2.765 14.63-16.048 28.995-31.843z" fill="#FEFEFE"/><path d="M309.848 545.375c-21.255-.96-69.284-47.738-78.747-66.972-9.924-20.174-20.237-50.076-30.79-85.584-10.554-35.51-31.287-82.686-35.184-98.195-8.675-34.523-37.89-150.903-27.62-159.21.7-.565 2.116-1.034 4.148-1.416l62.52 15.447s-38.09 8.742-48.98 30.023c-7.61 14.87 4.8 66.455 14.85 100.908 1.464 5.017 9.032 4.218 68.37-11.56-59.338 19.763-49.836 24.732-51.65 30.527-5 15.975 4.357 40.044 10.69 61.818 4.588 15.77 16.665 27.636 24.376 42.695 3.446 6.728 3.27 30.624 9.945 50.427 7.282 21.6 19.512 43.188 19.512 43.188l47.322 36.443s8.66 5.76 11.238 11.46zM443.212 138.504c.573.914 1.52 2.062 2.92 3.485 13.893 14.143 21.303 12.896 21.303 31.59 0 18.692 3.53 32.957-2.453 49.853-5.98 16.895-2.134 33.306-16.603 59.993-3.814 7.032-7.72 16.433-11.41 26.465 1.956-2.762 3.68-5.38 5.106-7.798 15.07-25.564 22.683-58.39 22.683-58.39s15.238-91.076 0-102.35c-.08-.058-.168-.115-.264-.172-1.02-.26-1.648-.303-1.648-.303s-.81-.345-2.108-.862c-3.913-.757-10.093-1.234-17.528-1.51z" fill="#FEFEFE"/><path d="M137.005 134.032c-5.018 9.41 8.264 28.28 20.94 30.598 12.675 2.318 71.117-37.934 127.66-12.43 8.163 3.683 12.704 17.812 28.795 62.227 16.092 44.416-.965 184.542-1.113 197.93 15.355 4.382 32.348-152.79 32.348-188.886 0-48.778 13.048-38.716 44.568-48.778 31.52-10.062 56.904-13.597 74.733-33.485-22.693-10.713-87.592-2.77-109.427-3.61 0 24.807-15.882 32.187-21.994 32.187s-27.147-9.056-20.08-32.186c-39.435-4.826-25.77-3.812-75.95-4.826-50.184-1.014-98.035-3.327-100.48 1.26z" fill="#D7CCC8"/><path d="M151.687 142.82c0 13.195 15.322 10.69 15.322 10.69s82.88-24.367 121.456-8.194c38.575 16.174 30.107 45.295 35.244 57.488 10.71 79.034 0 163.06 0 163.06s14.113-109.428 9.126-155.01c-4.988-45.585 54.62-54.972 54.62-54.972s59.325-7.3 53.937-13.063c-5.388-5.765-60.418 3.482-66.192 5.98-5.774 2.498-23.242 19.722-44.958 29.645-10.567-7.228-21.72-27.284-41.776-39.253-44.415 0-136.78-9.57-136.78 3.627z" opacity=".285" fill="#C5A39B"/></g><g fill="#E61919"><path d="M76 117.012L117.012 76l420.022 420.02-41.012 41.014z"/><path d="M307 614c169.55 0 307-137.45 307-307S476.55 0 307 0 0 137.45 0 307s137.45 307 307 307zm0-53c140.28 0 254-113.72 254-254S447.28 53 307 53 53 166.72 53 307s113.72 254 254 254z"/></g></g></svg>