<svg width="596" height="735" viewBox="0 0 596 735" xmlns="http://www.w3.org/2000/svg"><title>steak</title><g fill="none" fill-rule="evenodd"><path d="M33.27 44.83C15.98 58.804 65.167 254.546 79.77 312.61c6.562 26.084 41.468 105.43 59.237 165.153 17.768 59.723 35.13 110.015 51.84 143.946 5.07 10.293 44.235 50.62 44.235 50.62l38.97 37.333s41.88 26.833 54.283 24.358c32.642-6.512 28.575-58.22 41.273-83.133 7.25-14.225 26.812-48.326 34.9-95.436 6.076-35.392 11.264-69.514 28.8-97.39 5.873-9.333 87.37-89.896 112.74-132.892 25.37-42.997 38.19-98.205 38.19-98.205s25.657-153.186 0-172.146c-3.06-2.26-30.144-38.252-30.144-38.252L404.508 52.1s-23.036 18.79-52.848 18.79c-29.812 0-54.246-59.76-54.246-59.76S50.564 30.86 33.27 44.83z" fill="#D05252"/><path d="M541.554 332.314c1.643-2.477 3.147-4.864 4.494-7.146 25.37-42.997 38.19-98.205 38.19-98.205s25.657-153.186 0-172.146c-3.06-2.26-30.144-38.252-30.144-38.252l-28.742 6.828-36.325 250.628 52.527 58.294zM408.56 532.17c4.93-26.925 11.097-52.41 24.75-74.11 3.015-4.793 25.974-28.37 51.033-55.998l-52.46-55.474-71.207 125.52 47.884 60.06zM368.852 652.443c.245-.53.497-1.048.756-1.556 5.01-9.83 15.9-29.153 24.82-55.702l-49.166-59.755-11.02 67.31 34.61 49.703z" fill="#F1C6C6"/><path d="M175.622 586.897c5.13 12.954 10.207 24.62 15.226 34.812 5.07 10.293 44.234 50.62 44.234 50.62l38.97 37.333s41.88 26.833 54.283 24.358c1.54-.306 2.998-.714 4.38-1.215l-45.115-42.57-111.978-103.338zM4.222 7.427c-17.294 13.97 31.893 209.713 46.5 267.778 6.56 26.084 41.466 105.43 59.234 165.154 17.77 59.722 35.13 110.013 51.84 143.944 16.712 33.93 104.848 118.825 137.49 112.312 32.64-6.512 28.573-58.22 41.272-83.133 7.25-14.225 26.812-48.326 34.9-95.437 6.076-35.393 11.264-69.515 28.8-97.39 5.873-9.333 87.37-89.896 112.74-132.893 25.37-42.996 38.19-98.205 38.19-98.205s25.657-153.185 0-172.145c-13.7-10.125-179.73-2.718-179.73-2.718S364.956 60.25 335.144 60.25c-29.812 0-35.86-45.555-35.86-45.555S21.515-6.545 4.222 7.425z" fill="#F1C6C6"/><g><path d="M4.22 7.426c-17.292 13.972 31.895 209.714 46.5 267.78 6.562 26.083 41.468 105.43 59.236 165.153 17.77 59.722 35.13 110.013 51.84 143.944 16.712 33.93 104.848 118.825 137.49 112.312 32.64-6.512 28.573-58.22 41.272-83.133 7.25-14.225 26.812-48.326 34.9-95.437 6.076-35.393 11.264-69.515 28.8-97.39 5.873-9.333 87.37-89.896 112.74-132.893 25.37-42.996 38.19-98.205 38.19-98.205s25.657-153.185 0-172.145c-13.7-10.125-179.73-2.718-179.73-2.718S364.956 60.25 335.144 60.25c-29.812 0-35.86-45.555-35.86-45.555S21.515-6.545 4.222 7.425z" fill="#D32F2F"/><g fill="#FEFEFE" opacity=".653"><path d="M164.063 89.223c33.347 48.065-7.83 34.254 0 51.468 1.952 4.29 5.044 8.088 8.47 11.328.678.64 2.288.063 2.688-.778 2.834-5.97 2.07-13.85 6.56-18.702 3.82-4.13 11.342-24.868 16.532-27.05.814-.34 13.455 13.257 16.267 15.902 3.606 3.39 15.39 14.823 22.49 15.224 15.285.864 11.915 6.566 27.176 5.348 4.908-.392 3.864-4.042-5.623-12.156-6.614-5.658-13.496-4.396-21.553-8.416-10.63-5.303-14.01-12.555-22.49-20.573-1.952-1.844-4.042-3.742-6.56-4.676-8.528-3.16-17.637-4.53-26.24-7.48-1.477-.506-17.717.563-17.717.563zM273.104 202.248c-.855.73-9.995 12.156-11.245 10.286-.49-.734-3.844 5.966-.938 6.546 5.812 1.16 22.136-16.726 34.424-16.726 12.29 0-2.784 22.558-5.817 24.12-6.096 3.136-2.348 20.284-7.197 25.123-1.767 1.763 5.94-4.168 7.196-6.582 5.816-11.167-1.12-20.774 6.86-23.96 6.097-2.433 10.766-15.47 16.48-18.7 3.696-2.092 13.212 1.083 13.507 0 .664-2.45 3.068-8.526 3.748-9.422 3.114-4.1 6.304-8.25 8.434-12.934.774-1.704.72-3.886 0-5.612-2.936-7.03-18.638-24.557-25.69-21.018-1.985.995-4.97 26.322-5.235 31.34-.075 1.413-7.54 4.707-12.29 6.616 0 0-19.762 8.802-22.24 10.922zM188.68 306.718c5.362 0 12.137 7.72 14.275 21.246.428 2.707 1.1 9.606 0 8.748-2.68-2.086-4.067-9.893-6.42-13.747-3.143-5.147-10.204 16.413-10.39 17.497-.794 4.597 1.33 10.45.493 14.997-.595 3.225-2.562 3.193-3.95 3.748-.956.382-10.63 1.572-7.903-11.248.83-3.9 2.83-5.346 3.95-8.748 2.922-8.872 4.576-19.795 8.416-26.294l1.53-6.2zM446.277 133.72c-6.735 0-4.77 37.956-6.735 42.636-2.308 5.49-7.125-12.91-8.26-7.064-1.026 5.295-9.118 26.007-7.495 30.896 1.346 4.058 26.24-35.535 43.088-7.38 16.85 28.157 18.297 28.023 18.76 26.082 6.094-25.54-24.358-34.776-35.61-54.237-4.857-8.4-3.748-30.932-3.748-30.932zM109.73 195.258c-2.29 2.68-5.13 4.973-6.867 8.04-4.212 7.43 9.614 7.006 12.903 2.073.37-.554-.583-1.675 0-2 2.764-1.535 5.858-2.636 9-3 5.63-.648 11.365-.597 17 0 3.023.322.77 7.22 6.738 2 1.608-1.405 4.07-5.417 2.04-6.073-33.11-10.692-14.815-1.793-30.06 2-1.923.478-4.882 1.673-5.945 0-2.574-4.05-.964-18.422-3-14.078h-1.868c-.877 1.868-.667 4.074-1 6.112l1.058 4.926zM220.313 465.504c-2.81 11.233-2.767 24.18-15 27.04-5 1.168-7.78-2.02-11.114 2-.65.78-1.282 1.88-1.036 2.866.18.723 1.255 1 2 1 7.253 0 15.79-5.154 21.734-1 4.104 2.867-2.387 9.93-1.832 14.906.18 1.613 2.217 2.857 3.832 3 9.98.884 20.12 1.263 30.06 0 1.506-.19 3.532-3.822 2.034-4.078-8.524-1.454-19.365 5.615-25.94 0-5.616-4.794.608-14.79 0-22.148-.11-1.304-4.804-2.575-2-5.04 1.875-1.65 9.093-1.867 6.866-3l1-2c-10.726-5.453-9.626 3.268-7.867-8.945l-2.737-4.6zM465.05 265.785c-.06.84.668 19.1-5 21.078-6.922 2.416-18.22-4.34-21.905 2-2.195 3.776 34.6 3.047 35 3 .746-.087.41-1.587 1.04-2 .555-.366 1.744.616 2 0 1.46-3.53-7.285-13.488-9.08-18.87l-2.054-5.208z"/></g><g fill="#FEFEFE"><path d="M312.002 346.555c0 21.82-12.343 56.34-17.86 78.864-4.395 17.94-14.53 31.893-6.505 49.246 5.872 12.696 14.757-4.772 16.582-8.172 4.478-8.343 24.05-31.858 26.205-41.075 4.167-17.818 2.465-31.397 5.817-60.163.72-6.17-1.646-7.278 12.182-56.107 5.232-18.47 9.744-86.042 0-104.557-4.074-7.743-7.396 36.438-16.124 37.23-1.992.18 2.727 11.594.937 17.766-1.67 5.76-1.875 11.844-2.812 17.766l-18.423 69.2z"/><path d="M309.758 347.49c0-.086-9.646-58.217 2.81-78.39.83-1.34 2.24-2.504 3.782-2.84 3-.657 6.334-1.066 9.214 0 5.5 2.034 1.605 8.52 6.435 8.52"/></g><path d="M340.786 613.036c5.33-10.394 16.745-30.78 25.725-58.7-15.718 6.347-37.654 13.044-66.923 17.567-71.824 11.1-30.05 22.802-9.37 27.12 20.005 4.175 36.752 9.07 50.57 14.013zM453.075 367.098c-12.597 10.73-35.178 27.15-51.227 22.878-23.395-6.228 0-31.51-8.467-40.243-5.59 8.734-16.78 15.28-25.3 27.118-8.523 11.84 6.573 77.28 6.573 105.052 0 5.83 1.78 10.536 4.59 14.332 4.974-27.465 11.116-53.484 25.016-75.58 2.925-4.65 24.633-26.99 48.815-53.556z" fill="#FEFEFE"/><path d="M294.377 696.946c-35.786-1.612-116.647-80.29-132.58-112.642-16.71-33.93-34.072-84.222-51.84-143.945-17.77-59.725-52.675-139.07-59.236-165.155C36.116 217.14-13.07 21.398 4.22 7.425c1.178-.95 3.56-1.738 6.982-2.38l105.263 25.982S52.335 45.73 34 81.523c-12.81 25.008 8.08 111.772 25 169.72 2.465 8.437 15.207 7.093 115.108-19.444-99.9 33.24-83.903 41.596-86.957 51.342-8.418 26.87 7.337 67.353 18 103.973 7.723 26.525 28.056 46.483 41.04 71.81 5.8 11.317 5.502 51.51 16.742 84.815 12.26 36.327 32.85 72.64 32.85 72.64l79.673 61.293s14.582 9.688 18.922 19.273zM518.91 12.62c.965 1.538 2.56 3.47 4.914 5.863 23.393 23.79 35.87 21.692 35.87 53.132 0 31.44 5.94 55.433-4.13 83.85-10.07 28.417-3.593 56.02-27.955 100.904-6.42 11.826-13 27.637-19.208 44.512 3.293-4.648 6.195-9.05 8.595-13.12 25.37-42.995 38.19-98.204 38.19-98.204s25.658-153.185 0-172.145c-.132-.1-.28-.196-.442-.29-1.72-.44-2.774-.51-2.774-.51s-1.364-.58-3.55-1.45c-6.586-1.273-16.99-2.076-29.51-2.542z" fill="#FEFEFE"/><path d="M3.375 5.1C-5.073 20.924 17.29 52.665 38.63 56.562 59.97 60.46 158.364-7.24 253.56 35.66c13.744 6.192 21.39 29.955 48.48 104.658 27.093 74.704-1.624 310.385-1.873 332.9 25.85 7.372 54.462-256.98 54.462-317.69 0-82.04 21.966-65.118 75.034-82.04 53.067-16.925 95.804-22.87 125.82-56.32-38.205-18.02-147.47-4.66-184.232-6.07 0 41.72-26.737 54.134-37.027 54.134-10.29 0-45.706-15.233-33.81-54.135-66.39-8.116-43.382-6.41-127.87-8.116C88.057 1.276 7.493-2.614 3.375 5.1z" fill="#D7CCC8"/><path d="M28.095 19.878c0 22.195 25.796 17.983 25.796 17.983S193.433-3.122 258.38 24.08c64.946 27.202 50.688 76.182 59.338 96.69 18.032 132.927 0 274.254 0 274.254s23.76-184.05 15.363-260.718c-8.398-76.668 91.957-92.456 91.957-92.456s99.882-12.277 90.81-21.972c-9.07-9.694-101.72 5.86-111.44 10.06-9.724 4.2-39.133 33.17-75.695 49.86-17.79-12.156-36.565-45.89-70.334-66.02-74.778 0-230.283-16.094-230.283 6.1z" opacity=".285" fill="#C5A39B"/></g></g></svg>