<svg width="596" height="735" viewBox="0 0 596 735" xmlns="http://www.w3.org/2000/svg"><title>T-bone Shaped Skills</title><g fill="none" fill-rule="evenodd"><path d="M33.27 44.83c-17.29 13.974 31.897 209.716 46.5 267.78 6.562 26.084 41.468 105.43 59.237 165.153 17.768 59.723 35.13 110.015 51.84 143.946 5.07 10.29 44.235 50.62 44.235 50.62l38.97 37.33s41.88 26.83 54.283 24.36c32.642-6.52 28.575-58.22 41.273-83.14 7.25-14.23 26.812-48.33 34.9-95.44 6.076-35.39 11.264-69.52 28.8-97.39 5.873-9.34 87.37-89.9 112.74-132.89 25.37-43 38.19-98.21 38.19-98.21s25.657-153.19 0-172.15c-3.06-2.26-30.144-38.25-30.144-38.25L404.508 52.1s-23.036 18.79-52.848 18.79c-29.812 0-54.246-59.76-54.246-59.76S50.564 30.86 33.27 44.83z" fill="#D05252"/><path d="M541.554 332.314c1.643-2.477 3.147-4.864 4.494-7.146 25.37-42.997 38.19-98.205 38.19-98.205s25.657-153.186 0-172.146c-3.06-2.26-30.144-38.252-30.144-38.252l-28.742 6.828-36.325 250.628 52.527 58.3zM408.56 532.17c4.93-26.925 11.097-52.41 24.75-74.11 3.015-4.793 25.974-28.37 51.033-55.998l-52.46-55.474-71.207 125.52 47.884 60.06zm-39.708 120.273c.245-.53.497-1.048.756-1.556 5.01-9.83 15.9-29.153 24.82-55.702l-49.166-59.755-11.02 67.31 34.61 49.703z" fill="#F1C6C6"/><path d="M175.622 586.897c5.13 12.954 10.207 24.62 15.226 34.812 5.07 10.29 44.234 50.62 44.234 50.62l38.97 37.33s41.88 26.83 54.283 24.36c1.54-.31 2.998-.72 4.38-1.22L287.6 690.23 175.622 586.894zM4.222 7.427c-17.294 13.97 31.893 209.713 46.5 267.778 6.56 26.084 41.466 105.43 59.234 165.154 17.77 59.72 35.13 110.01 51.84 143.94 16.712 33.93 104.848 118.82 137.49 112.31 32.64-6.51 28.573-58.22 41.272-83.14 7.25-14.23 26.812-48.33 34.9-95.44 6.076-35.4 11.264-69.52 28.8-97.39 5.873-9.34 87.37-89.9 112.74-132.9 25.37-43 38.19-98.21 38.19-98.21s25.657-153.19 0-172.15c-13.7-10.127-179.73-2.72-179.73-2.72s-10.502 45.56-40.314 45.56c-29.812 0-35.86-45.555-35.86-45.555S21.514-6.548 4.222 7.422z" fill="#F1C6C6"/><path d="M4.22 7.426c-17.292 13.972 31.895 209.714 46.5 267.78 6.562 26.083 41.468 105.43 59.236 165.153 17.77 59.72 35.13 110.01 51.84 143.94 16.712 33.93 104.848 118.82 137.49 112.31 32.64-6.51 28.573-58.22 41.272-83.14 7.25-14.23 26.812-48.33 34.9-95.44 6.076-35.4 11.264-69.52 28.8-97.39 5.873-9.34 87.37-89.9 112.74-132.9 25.37-43 38.19-98.21 38.19-98.21s25.657-153.19 0-172.15c-13.7-10.127-179.73-2.72-179.73-2.72s-10.502 45.56-40.314 45.56c-29.812 0-35.86-45.555-35.86-45.555S21.514-6.548 4.222 7.422z" fill="#D32F2F"/><path d="M164.063 89.223c33.347 48.065-7.83 34.254 0 51.468 1.952 4.29 5.044 8.09 8.47 11.33.678.64 2.288.07 2.688-.78 2.84-5.97 2.07-13.85 6.56-18.7 3.82-4.13 11.35-24.87 16.54-27.05.82-.34 13.46 13.26 16.27 15.9 3.61 3.39 15.39 14.83 22.49 15.23 15.29.87 11.92 6.57 27.18 5.35 4.91-.39 3.87-4.04-5.62-12.15-6.61-5.66-13.49-4.39-21.55-8.41-10.63-5.3-14.01-12.55-22.49-20.57-1.95-1.84-4.04-3.74-6.56-4.67-8.52-3.16-17.63-4.53-26.24-7.48-1.47-.5-17.71.57-17.71.57zm109.04 113.025c-.854.73-9.994 12.156-11.244 10.286-.49-.734-3.85 5.966-.94 6.546 5.81 1.16 22.13-16.726 34.42-16.726 12.29 0-2.79 22.558-5.82 24.12-6.1 3.136-2.35 20.284-7.2 25.123-1.77 1.763 5.94-4.168 7.19-6.582 5.81-11.167-1.12-20.774 6.86-23.96 6.09-2.433 10.76-15.47 16.48-18.7 3.69-2.092 13.21 1.083 13.5 0 .66-2.45 3.07-8.526 3.75-9.422 3.11-4.1 6.3-8.25 8.43-12.934.77-1.71.72-3.89 0-5.62-2.94-7.03-18.64-24.56-25.69-21.02-1.99.99-4.97 26.32-5.24 31.34-.074 1.41-7.54 4.7-12.29 6.61 0 0-19.76 8.8-22.24 10.92zm-84.423 104.47c5.362 0 12.137 7.72 14.275 21.246.428 2.707 1.1 9.606 0 8.748-2.68-2.086-4.067-9.893-6.42-13.747-3.143-5.147-10.204 16.413-10.39 17.497-.794 4.597 1.33 10.45.493 14.997-.595 3.22-2.562 3.19-3.95 3.74-.956.38-10.63 1.57-7.903-11.25.83-3.9 2.83-5.35 3.95-8.75 2.922-8.87 4.576-19.8 8.416-26.3l1.53-6.2zM446.277 133.72c-6.735 0-4.77 37.956-6.735 42.636-2.308 5.49-7.125-12.91-8.26-7.064-1.026 5.295-9.118 26.007-7.495 30.896 1.346 4.058 26.24-35.535 43.088-7.38 16.85 28.157 18.297 28.023 18.76 26.082 6.094-25.54-24.358-34.776-35.61-54.237-4.857-8.4-3.748-30.932-3.748-30.932zM109.73 195.258c-2.29 2.68-5.13 4.973-6.867 8.04-4.212 7.43 9.614 7.006 12.903 2.073.37-.55-.583-1.67 0-2 2.764-1.53 5.858-2.63 9-3 5.63-.64 11.365-.59 17 0 3.023.33.77 7.22 6.738 2 1.608-1.4 4.07-5.41 2.04-6.07-33.11-10.69-14.815-1.79-30.06 2-1.923.48-4.882 1.68-5.945 0-2.58-4.05-.97-18.42-3-14.08h-1.87c-.88 1.87-.67 4.08-1 6.12l1.06 4.93zm110.583 270.246c-2.81 11.233-2.767 24.18-15 27.04-5 1.168-7.78-2.02-11.114 2-.65.78-1.29 1.88-1.04 2.866.18.723 1.25 1 2 1 7.25 0 15.79-5.154 21.73-1 4.1 2.867-2.39 9.93-1.83 14.906.18 1.613 2.21 2.857 3.83 3 9.98.884 20.12 1.263 30.06 0 1.5-.19 3.53-3.822 2.03-4.078-8.53-1.454-19.37 5.615-25.94 0-5.62-4.794.61-14.79 0-22.148-.11-1.304-4.81-2.575-2-5.04 1.87-1.65 9.09-1.867 6.86-3l1-2c-10.73-5.453-9.63 3.268-7.87-8.945l-2.74-4.6zm244.737-199.72c-.06.84.668 19.1-5 21.08-6.922 2.415-18.22-4.34-21.905 2-2.195 3.775 34.6 3.046 35 3 .746-.088.41-1.588 1.04-2 .555-.367 1.744.615 2 0 1.46-3.53-7.285-13.49-9.08-18.87l-2.054-5.21z" fill="#FEFEFE" opacity=".653"/><g fill="#FEFEFE"><path d="M312.002 346.555c0 21.82-12.343 56.34-17.86 78.864-4.395 17.94-14.53 31.89-6.505 49.24 5.872 12.69 14.757-4.77 16.582-8.17 4.47-8.35 24.05-31.86 26.2-41.08 4.16-17.82 2.46-31.4 5.81-60.17.72-6.17-1.65-7.28 12.18-56.11 5.23-18.47 9.74-86.04 0-104.56-4.08-7.75-7.4 36.44-16.13 37.23-2 .18 2.72 11.59.93 17.76-1.67 5.76-1.88 11.84-2.81 17.76L312 346.55z"/><path d="M309.758 347.49c0-.086-9.646-58.217 2.81-78.39.83-1.34 2.24-2.504 3.782-2.84 3-.657 6.334-1.066 9.214 0 5.5 2.034 1.605 8.52 6.435 8.52"/></g><path d="M340.786 613.036c5.33-10.394 16.745-30.78 25.725-58.7-15.71 6.347-37.65 13.044-66.92 17.567-71.82 11.1-30.05 22.802-9.37 27.12 20.01 4.175 36.75 9.07 50.57 14.013zm112.29-245.938c-12.598 10.73-35.18 27.15-51.228 22.878-23.395-6.228 0-31.51-8.467-40.243-5.59 8.734-16.78 15.28-25.3 27.118-8.52 11.84 6.58 77.28 6.58 105.06 0 5.83 1.78 10.54 4.59 14.33 4.98-27.46 11.12-53.48 25.02-75.58 2.93-4.65 24.64-26.99 48.82-53.55z" fill="#FEFEFE"/><path d="M294.377 696.946c-35.786-1.612-116.647-80.29-132.58-112.642-16.71-33.93-34.072-84.222-51.84-143.945-17.77-59.73-52.675-139.07-59.237-165.16C36.12 217.14-13.07 21.39 4.22 7.42c1.178-.95 3.56-1.735 6.982-2.38l105.263 25.985S52.335 45.73 34 81.523c-12.81 25.008 8.08 111.772 25 169.72 2.465 8.437 15.207 7.093 115.108-19.444-99.9 33.24-83.903 41.59-86.957 51.34-8.41 26.87 7.34 67.35 18 103.97 7.73 26.52 28.06 46.48 41.04 71.81 5.8 11.31 5.51 51.51 16.75 84.81 12.26 36.32 32.85 72.64 32.85 72.64l79.68 61.29s14.58 9.68 18.92 19.27zM518.91 12.62c.965 1.538 2.56 3.47 4.914 5.863 23.393 23.79 35.87 21.692 35.87 53.132 0 31.44 5.94 55.433-4.13 83.85-10.07 28.417-3.593 56.02-27.955 100.904-6.42 11.82-13 27.63-19.21 44.51 3.29-4.65 6.19-9.05 8.59-13.12 25.37-43 38.19-98.21 38.19-98.21s25.66-153.19 0-172.15c-.13-.1-.28-.2-.44-.29-1.72-.44-2.78-.51-2.78-.51s-1.37-.58-3.55-1.45c-6.59-1.28-16.99-2.08-29.51-2.54z" fill="#FEFEFE"/><path d="M3.375 5.1C-5.073 20.924 17.29 52.665 38.63 56.562 59.97 60.46 158.364-7.24 253.56 35.66c13.744 6.192 21.39 29.955 48.48 104.658 27.093 74.704-1.624 310.385-1.873 332.9 25.85 7.372 54.462-256.98 54.462-317.69 0-82.04 21.96-65.118 75.03-82.04 53.06-16.925 95.8-22.87 125.82-56.32-38.21-18.02-147.47-4.66-184.23-6.07 0 41.72-26.74 54.134-37.03 54.134S288.51 50 300.41 11.097c-66.39-8.116-43.382-6.41-127.87-8.116C88.057 1.28 7.492-2.61 3.372 5.1z" fill="#D7CCC8"/><path d="M28.095 19.878c0 22.195 25.796 17.983 25.796 17.983S193.44-3.12 258.38 24.08c64.946 27.202 50.688 76.182 59.338 96.69 18.032 132.927 0 274.254 0 274.254s23.76-184.05 15.363-260.718c-8.39-76.668 91.96-92.456 91.96-92.456s99.89-12.277 90.81-21.972c-9.07-9.694-101.72 5.86-111.44 10.06-9.72 4.2-39.13 33.17-75.69 49.86-17.79-12.156-36.56-45.89-70.33-66.02-74.78 0-230.28-16.094-230.28 6.1z" opacity=".285" fill="#C5A39B"/></g></svg>