<?xml version="1.0" standalone="no"?>
<!DOCTYPE svg PUBLIC "-//W3C//DTD SVG 20010904//EN"
 "http://www.w3.org/TR/2001/REC-SVG-20010904/DTD/svg10.dtd">
<svg version="1.0" xmlns="http://www.w3.org/2000/svg"
 width="500.000000pt" height="500.000000pt" viewBox="0 0 500.000000 500.000000"
 preserveAspectRatio="xMidYMid meet">
<metadata>
Created by potrace 1.11, written by Peter Selinger 2001-2013
</metadata>
<g transform="translate(0.000000,500.000000) scale(0.100000,-0.100000)"
fill="#000000" stroke="none">
<path d="M2507 4873 c-11 -10 -8 -94 3 -135 24 -84 131 -178 220 -193 70 -12
167 47 216 132 35 59 26 64 -14 8 -49 -70 -138 -114 -203 -100 -34 8 -97 88
-170 215 -25 44 -49 77 -52 73z"/>
<path d="M1566 4839 c-191 -22 -515 -120 -633 -191 -151 -92 -226 -180 -244
-288 -24 -149 30 -486 148 -920 45 -167 57 -190 99 -190 46 0 208 33 396 80
109 28 201 50 205 50 5 -1 -39 -19 -97 -41 -136 -51 -276 -120 -318 -156 -43
-36 -62 -111 -62 -243 0 -115 20 -210 95 -452 63 -203 89 -259 187 -406 89
-132 122 -190 136 -233 6 -18 23 -110 37 -204 44 -295 76 -395 213 -678 l76
-159 317 -243 c184 -142 325 -258 337 -277 26 -42 266 -268 284 -268 7 0 30
11 50 25 53 36 92 124 139 314 22 90 44 172 50 183 8 15 -6 42 -83 152 l-92
134 -121 36 c-66 20 -151 43 -190 51 -191 43 -271 79 -244 111 22 27 76 42
292 85 116 23 259 56 316 75 57 19 104 34 106 34 1 0 1 -9 1 -19 -1 -23 184
-255 195 -244 12 13 48 157 73 294 l24 132 -80 101 c-45 56 -95 115 -111 133
-28 30 -31 40 -43 160 -7 70 -22 199 -33 286 -25 188 -27 326 -7 365 8 15 51
63 96 107 l82 80 -6 -60 c-4 -33 -9 -77 -12 -97 -9 -54 2 -86 36 -103 71 -37
177 -7 311 87 l61 43 109 -115 c109 -114 109 -115 127 -94 9 12 58 68 108 125
96 110 237 286 255 320 9 17 -1 33 -78 117 -139 153 -127 130 -102 198 12 33
51 120 86 194 89 186 117 272 148 456 15 88 38 197 51 244 14 47 29 119 34
161 11 91 -4 468 -20 529 -12 45 -87 134 -121 145 -11 4 -30 -2 -47 -13 -43
-31 -140 -77 -232 -110 -122 -45 -534 -165 -675 -197 -136 -31 -177 -49 -223
-96 -52 -53 -72 -135 -83 -339 -5 -96 -13 -241 -18 -321 -6 -88 -6 -161 -1
-185 13 -54 12 -360 -1 -469 -6 -49 -30 -167 -54 -261 -33 -127 -47 -207 -55
-305 -30 -376 -30 -375 -100 -479 -22 -33 -54 -88 -69 -123 -29 -63 -92 -127
-126 -127 -44 0 -58 138 -25 236 12 32 48 155 81 272 68 245 74 306 50 542
-16 158 -5 285 30 358 21 43 22 52 15 251 -4 113 -10 209 -15 214 -4 4 -28
-19 -52 -52 -43 -58 -62 -74 -39 -31 6 11 10 35 8 53 -3 28 -7 32 -37 35 -26
3 -53 -9 -127 -54 -52 -31 -97 -54 -100 -51 -3 3 16 27 43 53 32 31 86 65 163
103 l115 56 3 74 c4 97 -18 179 -124 470 -139 380 -180 453 -273 493 -175 75
-396 103 -615 77z m249 -488 c96 -28 99 -30 169 -103 69 -71 90 -84 197 -122
25 -9 60 -32 79 -51 30 -31 31 -35 15 -41 -10 -4 -34 -3 -54 3 -20 6 -58 16
-86 23 -82 20 -115 41 -213 134 -92 88 -93 89 -112 70 -30 -30 -126 -215 -134
-256 -4 -21 -11 -38 -16 -38 -15 0 -60 65 -60 86 0 11 20 36 45 57 60 50 61
86 6 191 l-39 76 53 0 c29 0 96 -13 150 -29z m1729 -500 c15 -21 65 -73 111
-115 49 -45 92 -93 104 -119 22 -45 28 -97 12 -97 -5 0 -31 35 -57 78 -72 116
-92 140 -129 152 -46 15 -78 5 -151 -52 -35 -27 -64 -43 -64 -36 0 6 10 47 22
90 l23 78 21 -27 c11 -14 25 -23 31 -20 5 3 13 57 16 119 9 156 20 186 28 76
5 -73 10 -94 33 -127z m-2279 -217 c10 -8 13 -14 7 -14 -7 0 -12 -6 -12 -14 0
-15 -21 -26 -50 -26 -30 0 -32 16 -5 48 16 20 25 43 26 68 l2 39 7 -44 c4 -25
15 -50 25 -57z m207 23 c30 -12 30 -13 13 -30 -16 -17 -18 -17 -29 -1 -10 13
-26 16 -82 13 l-70 -4 30 22 c34 24 79 24 138 0z m984 -271 c-4 -24 -13 -52
-21 -62 -14 -17 -15 -14 -9 36 7 60 24 104 32 82 2 -7 1 -33 -2 -56z m1234
-317 c11 -20 16 -39 13 -43 -12 -12 -221 -7 -229 6 -5 8 9 9 55 5 77 -8 97 1
112 55 12 45 13 44 49 -23z m-1851 -258 c16 -57 13 -83 -6 -38 -8 21 -21 36
-27 34 -27 -9 -60 -93 -66 -167 -4 -66 -7 -75 -26 -78 -11 -2 -27 4 -34 13
-11 13 -6 39 35 163 27 81 50 151 53 155 8 16 59 -44 71 -82z m146 -1038 c0
-23 5 -29 28 -31 30 -4 38 -22 8 -22 -27 0 -47 -26 -32 -44 8 -10 10 -36 5
-81 -6 -59 -5 -70 11 -82 17 -12 15 -13 -19 -13 -38 0 -38 0 -31 33 21 91 6
106 -87 90 -35 -6 -65 -8 -68 -6 -10 9 27 23 61 23 47 0 84 34 99 91 19 68 19
69 23 69 1 0 3 -12 2 -27z m170 -273 c-16 -4 -50 -8 -75 -7 l-45 0 40 7 c22 4
56 7 75 7 l35 1 -30 -8z"/>
</g>
</svg>
