<?xml version="1.0" encoding="UTF-8" standalone="no"?>
<svg width="224px" height="76px" viewBox="0 0 224 76" version="1.1" xmlns="http://www.w3.org/2000/svg" xmlns:xlink="http://www.w3.org/1999/xlink" xmlns:sketch="http://www.bohemiancoding.com/sketch/ns">
    <!-- Generator: Sketch 3.4.4 (17249) - http://www.bohemiancoding.com/sketch -->
    <title>Chris Zamierowski - Logo</title>
    <desc>Developer, designer, thinker, carnivore</desc>
    <defs></defs>
    <g id="Symbols" stroke="none" stroke-width="1" fill="none" fill-rule="evenodd" sketch:type="MSPage">
        <g id="Notes" sketch:type="MSArtboardGroup" transform="translate(-328.000000, -419.000000)">
            <g id="Logo" sketch:type="MSLayerGroup" transform="translate(381.000000, 403.000000)">
                <g id="shadow" transform="translate(8.000000, 0.000000)" fill="#0288D1" sketch:type="MSShapeGroup">
                    <path d="M57.3710366,87.3260831 C52.2774831,88.247383 47.160612,88.9423531 42.0202698,89.4110144 C36.8799277,89.8796756 29.258843,90.1140027 23.9996003,90.1140027 C21.2860516,90.1140027 15.8758807,90.0100624 12.4916597,89.4110139 C9.86035183,88.9452402 8.83442687,88.0760577 8.80398901,87.3935112 C8.73440393,85.833117 11.0532991,84.6496591 12.640329,83.5561162 C14.2273588,82.4625733 18.0553318,81.0335353 21.5844778,79.7517268 C25.1797954,78.4458844 31.388929,76.4861818 36.0269007,75.3926389 C40.6648725,74.299096 45.5357084,73.3557792 50.6395548,72.5626602 C55.7434011,71.7695411 60.9357796,71.15268 66.2168461,70.7120584 C71.4979126,70.2714367 77.0531731,69.8842278 81.9637367,69.8842278 C84.346377,69.8842278 88.8524232,69.9423089 90.6391971,70.0584728 C92.4259709,70.1746367 93.9533887,70.3348604 95.2214962,70.5391486 C96.4896037,70.7434368 97.5021272,70.9877779 98.2590971,71.2721792 C99.0160671,71.5565804 99.5159757,71.8710194 99.7588378,72.2155054 L86.9709608,75.0554982 C86.342538,75.1676565 85.6835834,75.2697991 84.9940772,75.3619291 C84.304571,75.4540591 83.567565,75.5001234 82.7830371,75.5001234 C82.2600185,75.5001234 81.8542912,75.4680786 81.565843,75.4039882 C81.2773949,75.3398978 80.9984944,75.2617887 80.7291332,75.1696587 C80.4597719,75.0775288 80.1616233,74.977389 79.8346783,74.8692364 C79.5077334,74.7610838 79.0425118,74.660944 78.4389998,74.568814 C77.8354878,74.476684 77.0481046,74.398575 76.0768267,74.3344846 C75.1055487,74.2703941 73.8499289,74.2383494 72.3099297,74.2383494 C69.6367235,74.2383494 66.837583,74.3685311 63.9124245,74.6288985 C60.9872659,74.8892658 58.0657092,75.2617858 55.1476667,75.7464697 C52.2296242,76.2311535 49.3790748,76.8179727 46.5959328,77.5069448 C43.8127908,78.1959169 41.2412002,78.9689961 38.8810838,79.8262055 C36.4106815,80.7234715 34.1996112,81.6874855 33.166864,82.3844689 C32.1341168,83.0814523 31.7242842,83.6682715 31.937354,84.144944 C32.1504238,84.6216165 32.9320415,84.9841226 34.2822307,85.232473 C35.6324199,85.4808234 37.4697505,85.6049967 39.7942777,85.6049967 C41.1308808,85.6049967 42.4008671,85.5869716 43.6042748,85.5509207 C44.8076824,85.5148698 46.0028522,85.4527832 47.1898202,85.3646588 C48.3767881,85.2765345 49.5918387,85.1623751 50.8350085,85.0221773 C52.0781782,84.8819795 53.4223349,84.7077363 54.8675188,84.4994424 C55.4367695,84.4193294 55.9964684,84.3532371 56.5466322,84.3011636 C57.096796,84.2490902 57.5897949,84.2230538 58.0256437,84.2230538 C58.3743228,84.2230538 58.6733688,84.241079 58.9227906,84.2771298 C59.1722125,84.3131807 59.3354178,84.3752674 59.4124115,84.4633917 L57.3710366,87.3260831 Z" id="c"></path>
                    <path d="M152.473702,74.107478 C151.737461,74.2921654 150.94466,74.4657689 150.095277,74.6282938 L92.7970714,85.4546149 L122.375892,85.4546149 L111.029831,89.5755772 L60.2341466,89.5755772 L67.6139933,86.8951694 C68.0818055,86.725257 68.6517005,86.557194 69.3236955,86.3909753 C69.9956905,86.2247567 70.7124625,86.0714684 71.4740331,85.931106 L128.944148,75.0715414 L102.41815,75.0715414 L114.190915,70.7955974 L161.933777,70.7955974 L154.371301,73.5423373 C153.84247,73.7344122 153.209943,73.9227906 152.473702,74.107478 Z" id="z"></path>
                </g>
                <g id="CZ-+-CZ-condensed" transform="translate(0.000000, 1.000000)" fill="#FFFFFF" sketch:type="MSShapeGroup">
                    <path d="M50.4932358,69.0472201 C50.8464834,69.1801972 51.1850074,69.4092099 51.5088177,69.7342651 L57.4256862,80.2935804 C54.8352035,83.6918846 51.5897894,86.2553494 47.6893466,87.984052 C43.7889038,89.7127545 36.7215792,90.5770928 31.3934272,90.5770928 C28.6443241,90.5770928 22.8733426,90.1936989 17.7738357,87.9840502 C13.8088546,86.2659986 10.3450507,83.0599345 8.41036693,80.5422957 C3.98741578,74.7866298 3.03563992,70.4213303 1.59321202,66.387691 C0.150784116,62.3540518 0.0428550862,57.0829066 0.0428550862,52.3548313 C0.0428550862,47.5381046 0.867087237,40.3095513 2.51557626,36.275912 C4.16406529,32.2422728 6.46749978,28.7627571 9.42594884,25.8372605 C12.3843979,22.9117639 15.9241806,20.6364118 20.0454032,19.0111359 C24.1666258,17.38586 28.714621,15.9576025 33.6895254,15.9576025 C36.1033843,15.9576025 40.8304784,16.1718402 42.9646829,16.6003221 C45.0988875,17.0288039 47.0932349,17.6198044 48.9477851,18.3733414 C50.8023352,19.1268784 52.5096732,20.0281543 54.0698504,21.077196 C55.6300275,22.1262377 57.01356,23.2860763 58.2204895,24.5567465 L53.1867357,35.0323359 C52.8629253,35.4460425 52.4802461,35.8228054 52.0386865,36.1626358 C51.597127,36.5024662 50.9789529,36.6723789 50.1841457,36.6723789 C49.6542742,36.6723789 49.1538475,36.5541787 48.6828506,36.317775 C48.2118538,36.0813712 47.7114271,35.7932585 47.1815556,35.453428 C46.6516842,35.1135976 46.0703061,34.7442223 45.4374041,34.3452909 C44.8045021,33.9463596 44.0538621,33.5769842 43.1854616,33.2371538 C42.3170611,32.8973234 41.3014894,32.6092106 40.1387159,32.3728069 C38.9759424,32.1364031 37.6144875,32.018203 36.0543103,32.018203 C33.3460784,32.018203 30.8733819,32.498391 28.6361468,33.4587812 C26.3989117,34.4191715 24.4781564,35.7932478 22.8738233,37.5810513 C21.2694903,39.3688548 20.0184236,41.5333943 19.1205858,44.0747347 C18.2227481,46.6160752 17.7738359,49.4676528 17.7738359,52.6295532 C17.7738359,55.9392059 18.2227481,59.4950654 19.1205858,62.0659563 C20.0184236,64.6368472 21.2400534,66.8013867 22.7855119,68.5596397 C24.3309703,70.3178927 26.1339782,71.6550315 28.1945895,72.5710961 C30.2552007,73.4871607 32.4629654,73.9451861 34.8179498,73.9451861 C36.1720657,73.9451861 37.408414,73.8786985 38.5270315,73.7457214 C39.6456491,73.6127443 40.6832985,73.3837316 41.6400109,73.0586764 C42.5967232,72.7336212 43.509266,72.3125333 44.3776665,71.7954001 C45.2460669,71.2782669 46.1218136,70.6355538 47.0049327,69.8672415 C47.3581804,69.5717368 47.7408596,69.3279491 48.1529818,69.135871 C48.5651041,68.943793 48.9919386,68.8477554 49.4334982,68.8477554 C49.7867458,68.8477554 50.1399881,68.914243 50.4932358,69.0472201 Z" id="CZ-Copy-2"></path>
                    <path d="M117.249486,19.319278 L117.249486,29.450895 C117.249486,30.1593819 117.134121,30.8542336 116.903387,31.535471 C116.672653,32.2167084 116.353703,32.857062 115.946526,33.4565509 L88.0957494,73.3904882 L118.062128,73.3904882 L118.062128,88.5910578 L66.600891,88.5910578 L66.600891,78.7041134 C66.600891,78.077375 66.70947,77.4574582 66.9266311,76.8443446 C67.1437923,76.2312309 67.4423843,75.6658123 67.8224163,75.1480719 L95.7546274,35.0915125 L68.8810715,35.0915125 L68.8810715,19.319278 L117.249486,19.319278 Z" id="CZ-Copy"></path>
                </g>
            </g>
        </g>
    </g>
</svg>