<svg width="224" height="76" viewBox="0 0 224 76" xmlns="http://www.w3.org/2000/svg">
  <title>
    Chris Zamierowski - Logo
  </title>
  <desc>
    Developer, designer, thinker, carnivore
  </desc>
  <g fill="none" fill-rule="evenodd">
    <path d="M118.37 71.326c-5.093.92-10.21 1.616-15.35 2.085-5.14.47-12.76.71-18.02.71-2.714 0-8.124-.1-11.508-.7-2.632-.46-3.658-1.33-3.688-2.01-.07-1.56 2.25-2.74 3.836-3.84 1.587-1.09 5.415-2.52 8.944-3.8 3.596-1.3 9.805-3.26 14.443-4.36 4.638-1.09 9.51-2.03 14.613-2.83 5.103-.79 10.296-1.41 15.577-1.85 5.28-.44 10.836-.83 15.747-.83 2.382 0 6.888.06 8.675.18 1.78.12 3.31.28 4.58.48 1.27.21 2.28.45 3.04.74.75.288 1.25.6 1.5.947l-12.79 2.84c-.63.11-1.29.21-1.98.303s-1.43.136-2.21.136c-.53 0-.93-.034-1.22-.098-.29-.064-.57-.142-.84-.234s-.57-.195-.9-.3c-.33-.11-.79-.21-1.4-.3-.61-.095-1.39-.17-2.37-.24-.97-.064-2.23-.096-3.77-.096-2.67 0-5.47.13-8.398.39-2.926.26-5.847.64-8.765 1.12-2.92.49-5.77 1.07-8.55 1.76s-5.358 1.467-7.718 2.32c-2.47.9-4.68 1.86-5.717 2.56-1.03.7-1.44 1.287-1.23 1.76.216.48 1 .84 2.35 1.09 1.35.25 3.19.37 5.51.37 1.334 0 2.604-.02 3.81-.05 1.2-.036 2.4-.1 3.583-.186 1.19-.09 2.404-.202 3.647-.342 1.247-.14 2.59-.315 4.037-.524.57-.08 1.13-.144 1.68-.2.55-.05 1.044-.074 1.48-.074.348 0 .647.016.897.05s.41.1.49.19l-2.04 2.86zm95.104-13.22c-.737.186-1.53.36-2.38.52l-57.297 10.83h29.58l-11.347 4.12h-50.796l7.38-2.68c.468-.17 1.038-.34 1.71-.505.672-.16 1.388-.32 2.15-.46l57.47-10.85h-26.526l11.772-4.28h47.747l-7.563 2.75c-.528.19-1.16.38-1.896.57z" fill="#0288D1"/>
    <path d="M103.493 54.047c.353.133.692.362 1.016.687l5.91 10.56c-2.59 3.398-5.84 5.96-9.74 7.69-3.9 1.73-10.97 2.593-16.3 2.593-2.75 0-8.52-.383-13.62-2.593-3.97-1.718-7.43-4.924-9.37-7.442-4.43-5.755-5.38-10.12-6.82-14.154-1.44-4.034-1.55-9.305-1.55-14.033 0-4.817.82-12.045 2.47-16.08 1.65-4.033 3.95-7.512 6.91-10.438 2.96-2.925 6.5-5.2 10.62-6.826C77.16 2.39 81.71.96 86.69.96c2.413 0 7.14.214 9.275.642 2.134.43 4.128 1.02 5.983 1.773 1.854.754 3.562 1.655 5.122 2.704 1.56 1.05 2.944 2.21 4.15 3.48l-5.033 10.47c-.324.41-.707.79-1.148 1.13-.45.34-1.06.51-1.86.51-.53 0-1.03-.12-1.5-.36s-.98-.53-1.5-.87c-.53-.34-1.11-.71-1.75-1.11-.63-.4-1.39-.77-2.25-1.11-.87-.34-1.89-.63-3.05-.87-1.17-.23-2.53-.35-4.09-.35-2.71 0-5.18.48-7.42 1.44s-4.16 2.33-5.76 4.12c-1.61 1.79-2.86 3.95-3.75 6.49-.9 2.54-1.35 5.392-1.35 8.554 0 3.31.45 6.864 1.34 9.435.894 2.57 2.12 4.733 3.662 6.492 1.544 1.75 3.347 3.09 5.41 4.01 2.06.91 4.266 1.37 6.62 1.37 1.355 0 2.59-.068 3.71-.2 1.12-.13 2.156-.36 3.113-.688.955-.327 1.87-.75 2.736-1.266.87-.518 1.746-1.16 2.63-1.93.354-.295.737-.54 1.15-.73.41-.193.84-.29 1.28-.29.353 0 .706.067 1.06.2zM170.25 4.32v10.13c0 .71-.116 1.404-.347 2.085-.23.682-.55 1.322-.956 1.922l-27.85 39.933h29.965v15.2h-51.46v-9.886c0-.627.107-1.247.325-1.86.217-.613.515-1.178.895-1.696l27.933-40.056H121.88V4.32h48.37z" fill="#FFF"/>
  </g>
</svg>
