<svg xmlns="http://www.w3.org/2000/svg" width="1010" height="234" viewBox="0 0 1010 234"><title>FillUp</title><desc>The first automated drink mixing machine made for tailgaiting</desc><g fill="none" fill-rule="evenodd"><path d="M703.714 232.872h-82.092L591 .65l20.68.465s25.645 197.37 33.1 207.068c7.453 9.697 50.022 7.824 57.536 7.986.19.004.37.018.544.043l.016-.07s50.85 1.737 58.304-7.96c7.455-9.697 33.1-207.068 33.1-207.068L814.96.65l-30.623 232.222h-80.623z" fill="#526FA0"/><path d="M.804 7.637c0 11.614 17.55 103.14 17.55 103.14s-2.328 5.617 47.63 5.832c49.956.215 49.956-6.673 49.956-6.673S134.8 5.797 134.8 2.86c0-2.933-12.94-2.392-28.35 1.192-15.41 3.585-44.504 0-54.66-1.69C41.637.67.805-3.98.805 7.636z" class="fillup-liquid" fill="#ED3B40"/><path d="M147.89 63.412l3.4-62.337H-.3v231.93h79.43v-84.74h51.65v-53.5H79.13V63.41h68.76zm103.898 169.61V1.074h-78.27V233.02h78.27zm167.75.2l5.007-60.584h-64.783l.893-171.563h-80.21v232.147H419.54zm161.725-.154l5.274-59.837h-64.494l.788-172.155h-80.207v231.993h138.64zm356.796-72.48c20.84-3.34 67.917-2.486 71-71.576 3.085-69.09-33.335-87.937-92.835-87.937h-84.99V233h78.08v-72.41h28.744zm-20.496-48.013h-9.214v-52.5h7.897c13.492 0 16.453 7.975 16.453 26.582 0 18.608-2.632 25.918-15.136 25.918z" fill="#526FA0"/></g></svg>