<svg xmlns="http://www.w3.org/2000/svg" width="1010px" height="234px" viewBox="0 0 1010 234" version="1.1"><title>FillUp</title><desc>The first automated drink mixing machine made for tailgaiting</desc><g stroke="none" stroke-width="1" fill="none" fill-rule="evenodd"><path d="M703.714005 232.872447L621.622065 232.872447 591 0.650416577 611.679494 1.11459374C611.679494 1.11459374 637.32485 198.485606 644.779071 208.182567 652.233292 217.879527 694.802383 216.006862 702.315964 216.169475 702.505799 216.173583 702.686935 216.188147 702.859688 216.212634 702.870037 216.166402 702.875523 216.142375 702.875523 216.142375 702.875523 216.142375 753.726101 217.879527 761.180321 208.182567 768.634542 198.485606 794.279898 1.11459374 794.279898 1.11459374L814.959392 0.650416577 784.337328 232.872447C784.337328 232.872447 712.966539 232.872447 703.714005 232.872447L703.714005 232.872447Z" fill="#526FA0"/><g class="fillup-liquid" fill="#ED3B40"><path d="M0.8039601 7.63664774C0.803960101 19.2512305 18.3542084 110.776813 18.3542084 110.776813 18.3542084 110.776813 16.0260674 116.394322 65.9831366 116.609489 115.940206 116.824656 115.940203 109.936942 115.940203 109.936942 115.940203 109.936942 134.800305 5.79589524 134.800302 2.86142521 134.800298-0.0730448086 121.859913 0.468011723 106.449231 4.05232974 91.0385487 7.63664775 61.9462445 4.05232971 51.79092 2.36098421 41.6355955 0.669638718 0.803960098-3.97793499 0.8039601 7.63664774Z" id="#ED3B40"/></g><path d="M147.89046 63.4119942L151.289737 1.075 -0.3 1.075 -0.3 233.005115 79.1311905 233.005115 79.1311905 148.265109 130.778629 148.265109 130.778629 94.7638428 79.1311905 94.7638428 79.1311905 63.4119942 147.89046 63.4119942ZM251.787935 233.020969L251.787935 1.075 173.517578 1.075 173.517578 233.020969 251.787935 233.020969ZM419.538762 233.222171L424.545247 172.6384 359.762059 172.6384 360.655362 1.075 280.444966 1.075 280.444966 233.222171 419.538762 233.222171ZM581.263294 233.067844L586.537342 173.231433 522.043362 173.231433 522.830975 1.075 442.622792 1.075 442.622792 233.067844 581.263294 233.067844ZM938.059085 160.589404C958.899181 157.24834 1005.97724 158.101846 1009.06092 89.0117752 1012.14459 19.9217045 975.725 1.075 916.225 1.075L831.235271 1.075 831.235271 233.000171 909.315883 233.000171 909.315883 160.589404 938.059085 160.589404ZM917.563513 112.575L908.35 112.575 908.35 60.075 916.247297 60.075C929.738514 60.075 932.7 68.0496835 932.7 86.6572785 932.7 105.264873 930.067568 112.575 917.563513 112.575Z" id="fillup-text" fill="#526FA0"/></g></svg>